  0
SECTION
  2
HEADER
  9
$ACADVER
  1
AC1015
  9
$ACADMAINTVER
 70
     6
  9
$DWGCODEPAGE
  3
ANSI_1252
  9
$INSBASE
 10
0.0
 20
0.0
 30
0.0
  9
$EXTMIN
 10
-124.9045
 20
-46.5709
 30
0.0
  9
$EXTMAX
 10
124.9045
 20
46.5709
 30
0.0
  9
$LIMMIN
 10
0.0
 20
0.0
  9
$LIMMAX
 10
420.0
 20
297.0
  9
$ORTHOMODE
 70
     0
  9
$REGENMODE
 70
     1
  9
$FILLMODE
 70
     1
  9
$QTEXTMODE
 70
     0
  9
$MIRRTEXT
 70
     1
  9
$LTSCALE
 40
1.0
  9
$ATTMODE
 70
     1
  9
$TEXTSIZE
 40
3.5
  9
$TRACEWID
 40
1.0
  9
$TEXTSTYLE
  7
Standard
  9
$CLAYER
  8
0
  9
$CELTYPE
  6
ByLayer
  9
$CECOLOR
 62
   256
  9
$CELTSCALE
 40
1.0
  9
$DISPSILH
 70
     0
  9
$DIMSCALE
 40
1.0
  9
$DIMASZ
 40
3.302
  9
$DIMEXO
 40
0.0
  9
$DIMDLI
 40
3.75
  9
$DIMRND
 40
0.0
  9
$DIMDLE
 40
0.0
  9
$DIMEXE
 40
1.0
  9
$DIMTP
 40
0.0
  9
$DIMTM
 40
0.0
  9
$DIMTXT
 40
3.5
  9
$DIMCEN
 40
2.5
  9
$DIMTSZ
 40
0.0
  9
$DIMTOL
 70
     0
  9
$DIMLIM
 70
     0
  9
$DIMTIH
 70
     1
  9
$DIMTOH
 70
     1
  9
$DIMSE1
 70
     0
  9
$DIMSE2
 70
     0
  9
$DIMTAD
 70
     1
  9
$DIMZIN
 70
     1
  9
$DIMBLK
  1

  9
$DIMASO
 70
     1
  9
$DIMSHO
 70
     1
  9
$DIMPOST
  1

  9
$DIMAPOST
  1

  9
$DIMALT
 70
     0
  9
$DIMALTD
 70
     3
  9
$DIMALTF
 40
0.0393700787
  9
$DIMLFAC
 40
1.0
  9
$DIMTOFL
 70
     1
  9
$DIMTVP
 40
0.0
  9
$DIMTIX
 70
     0
  9
$DIMSOXD
 70
     0
  9
$DIMSAH
 70
     0
  9
$DIMBLK1
  1

  9
$DIMBLK2
  1

  9
$DIMSTYLE
  2
ISO-25
  9
$DIMCLRD
 70
     0
  9
$DIMCLRE
 70
     0
  9
$DIMCLRT
 70
     0
  9
$DIMTFAC
 40
1.0
  9
$DIMGAP
 40
1.524
  9
$DIMJUST
 70
     0
  9
$DIMSD1
 70
     0
  9
$DIMSD2
 70
     0
  9
$DIMTOLJ
 70
     0
  9
$DIMTZIN
 70
     1
  9
$DIMALTZ
 70
     0
  9
$DIMALTTZ
 70
     0
  9
$DIMUPT
 70
     0
  9
$DIMDEC
 70
     2
  9
$DIMTDEC
 70
     2
  9
$DIMALTU
 70
     2
  9
$DIMALTTD
 70
     3
  9
$DIMTXSTY
  7
Standard
  9
$DIMAUNIT
 70
     0
  9
$DIMADEC
 70
     2
  9
$DIMALTRND
 40
0.0
  9
$DIMAZIN
 70
     0
  9
$DIMDSEP
 70
    44
  9
$DIMATFIT
 70
     3
  9
$DIMFRAC
 70
     0
  9
$DIMLDRBLK
  1

  9
$DIMLUNIT
 70
     2
  9
$DIMLWD
 70
    -2
  9
$DIMLWE
 70
    -2
  9
$DIMTMOVE
 70
     0
  9
$LUNITS
 70
     2
  9
$LUPREC
 70
     2
  9
$SKETCHINC
 40
1.0
  9
$FILLETRAD
 40
0.0
  9
$AUNITS
 70
     0
  9
$AUPREC
 70
     2
  9
$MENU
  1
.
  9
$ELEVATION
 40
0.0
  9
$PELEVATION
 40
0.0
  9
$THICKNESS
 40
0.0
  9
$LIMCHECK
 70
     0
  9
$CHAMFERA
 40
0.0
  9
$CHAMFERB
 40
0.0
  9
$CHAMFERC
 40
0.0
  9
$CHAMFERD
 40
0.0
  9
$SKPOLY
 70
     0
  9
$TDCREATE
 40
2460840.691964804
  9
$TDUCREATE
 40
2460840.60863147
  9
$TDUPDATE
 40
2460840.692013935
  9
$TDUUPDATE
 40
2460840.608680602
  9
$TDINDWG
 40
0.0000000116
  9
$TDUSRTIMER
 40
0.0000000116
  9
$USRTIMER
 70
     1
  9
$ANGBASE
 50
0.0
  9
$ANGDIR
 70
     0
  9
$PDMODE
 70
     0
  9
$PDSIZE
 40
-1.0
  9
$PLINEWID
 40
0.0
  9
$SPLFRAME
 70
     0
  9
$SPLINETYPE
 70
     6
  9
$SPLINESEGS
 70
     8
  9
$HANDSEED
  5
1A3
  9
$SURFTAB1
 70
     6
  9
$SURFTAB2
 70
     6
  9
$SURFTYPE
 70
     6
  9
$SURFU
 70
     6
  9
$SURFV
 70
     6
  9
$UCSBASE
  2

  9
$UCSNAME
  2

  9
$UCSORG
 10
0.0
 20
0.0
 30
0.0
  9
$UCSXDIR
 10
1.0
 20
0.0
 30
0.0
  9
$UCSYDIR
 10
0.0
 20
1.0
 30
0.0
  9
$UCSORTHOREF
  2

  9
$UCSORTHOVIEW
 70
     0
  9
$UCSORGTOP
 10
0.0
 20
0.0
 30
0.0
  9
$UCSORGBOTTOM
 10
0.0
 20
0.0
 30
0.0
  9
$UCSORGLEFT
 10
0.0
 20
0.0
 30
0.0
  9
$UCSORGRIGHT
 10
0.0
 20
0.0
 30
0.0
  9
$UCSORGFRONT
 10
0.0
 20
0.0
 30
0.0
  9
$UCSORGBACK
 10
0.0
 20
0.0
 30
0.0
  9
$PUCSBASE
  2

  9
$PUCSNAME
  2

  9
$PUCSORG
 10
0.0
 20
0.0
 30
0.0
  9
$PUCSXDIR
 10
1.0
 20
0.0
 30
0.0
  9
$PUCSYDIR
 10
0.0
 20
1.0
 30
0.0
  9
$PUCSORTHOREF
  2

  9
$PUCSORTHOVIEW
 70
     0
  9
$PUCSORGTOP
 10
0.0
 20
0.0
 30
0.0
  9
$PUCSORGBOTTOM
 10
0.0
 20
0.0
 30
0.0
  9
$PUCSORGLEFT
 10
0.0
 20
0.0
 30
0.0
  9
$PUCSORGRIGHT
 10
0.0
 20
0.0
 30
0.0
  9
$PUCSORGFRONT
 10
0.0
 20
0.0
 30
0.0
  9
$PUCSORGBACK
 10
0.0
 20
0.0
 30
0.0
  9
$USERI1
 70
     0
  9
$USERI2
 70
     0
  9
$USERI3
 70
     0
  9
$USERI4
 70
     0
  9
$USERI5
 70
     0
  9
$USERR1
 40
0.0
  9
$USERR2
 40
0.0
  9
$USERR3
 40
0.0
  9
$USERR4
 40
0.0
  9
$USERR5
 40
0.0
  9
$WORLDVIEW
 70
     1
  9
$SHADEDGE
 70
     3
  9
$SHADEDIF
 70
    70
  9
$TILEMODE
 70
     1
  9
$MAXACTVP
 70
    64
  9
$PINSBASE
 10
0.0
 20
0.0
 30
0.0
  9
$PLIMCHECK
 70
     0
  9
$PEXTMIN
 10
1.0000000000E+20
 20
1.0000000000E+20
 30
1.0000000000E+20
  9
$PEXTMAX
 10
-1.0000000000E+20
 20
-1.0000000000E+20
 30
-1.0000000000E+20
  9
$PLIMMIN
 10
0.0
 20
0.0
  9
$PLIMMAX
 10
420.0
 20
297.0
  9
$UNITMODE
 70
     0
  9
$VISRETAIN
 70
     1
  9
$PLINEGEN
 70
     0
  9
$PSLTSCALE
 70
     1
  9
$TREEDEPTH
 70
  3020
  9
$CMLSTYLE
  2
Standard
  9
$CMLJUST
 70
     0
  9
$CMLSCALE
 40
20.0
  9
$PROXYGRAPHICS
 70
     1
  9
$MEASUREMENT
 70
     1
  9
$CELWEIGHT
370
    -1
  9
$ENDCAPS
280
     0
  9
$JOINSTYLE
280
     0
  9
$LWDISPLAY
290
     1
  9
$INSUNITS
 70
     4
  9
$HYPERLINKBASE
  1

  9
$STYLESHEET
  1

  9
$XEDIT
290
     1
  9
$CEPSNTYPE
380
     0
  9
$PSTYLEMODE
290
     1
  9
$FINGERPRINTGUID
  2
{e12a8152-2892-41c8-bc4a-7f133f08fcbf}
  9
$VERSIONGUID
  2
{FAEB1C32-E019-11D5-929B-00C0DF256EC4}
  9
$EXTNAMES
290
     1
  9
$PSVPSCALE
 40
0.0
  9
$OLESTARTUP
290
     0
  0
ENDSEC
  0
SECTION
  2
CLASSES
  0
CLASS
  1
ACDBDICTIONARYWDFLT
  2
AcDbDictionaryWithDefault
  3
ObjectDBX Classes
 90
        0
280
     0
281
     0
  0
CLASS
  1
VISUALSTYLE
  2
AcDbVisualStyle
  3
ObjectDBX Classes
 90
     4095
280
     0
281
     0
  0
CLASS
  1
MATERIAL
  2
AcDbMaterial
  3
ObjectDBX Classes
 90
     1153
280
     0
281
     0
  0
CLASS
  1
SCALE
  2
AcDbScale
  3
ObjectDBX Classes
 90
     1153
280
     0
281
     0
  0
CLASS
  1
TABLESTYLE
  2
AcDbTableStyle
  3
ObjectDBX Classes
 90
     4095
280
     0
281
     0
  0
CLASS
  1
MLEADERSTYLE
  2
AcDbMLeaderStyle
  3
ACDB_MLEADERSTYLE_CLASS
 90
     4095
280
     0
281
     0
  0
CLASS
  1
SUN
  2
AcDbSun
  3
SCENEOE
 90
     1153
280
     0
281
     0
  0
CLASS
  1
ACDBPLACEHOLDER
  2
AcDbPlaceHolder
  3
ObjectDBX Classes
 90
        0
280
     0
281
     0
  0
CLASS
  1
LAYOUT
  2
AcDbLayout
  3
ObjectDBX Classes
 90
        0
280
     0
281
     0
  0
ENDSEC
  0
SECTION
  2
TABLES
  0
TABLE
  2
VPORT
  5
8
330
0
100
AcDbSymbolTable
 70
     1
  0
VPORT
  5
29
330
8
100
AcDbSymbolTableRecord
100
AcDbViewportTableRecord
  2
*Active
 70
     0
 10
0.0
 20
0.0
 11
1.0
 21
1.0
 12
0.0
 22
0.0
 13
0.0
 23
0.0
 14
10.0
 24
10.0
 15
10.0
 25
10.0
 16
0.0
 26
0.0
 36
1.0
 17
0.0
 27
0.0
 37
0.0
 40
95.004636
 41
2.6820289065
 42
50.0
 43
0.0
 44
0.0
 50
0.0
 51
0.0
 71
     0
 72
   100
 73
     1
 74
     3
 75
     0
 76
     0
 77
     0
 78
     0
281
     0
 65
     1
110
0.0
120
0.0
130
0.0
111
1.0
121
0.0
131
0.0
112
0.0
122
1.0
132
0.0
 79
     0
146
0.0
  0
ENDTAB
  0
TABLE
  2
LTYPE
  5
5
330
0
100
AcDbSymbolTable
 70
     6
  0
LTYPE
  5
14
330
5
100
AcDbSymbolTableRecord
100
AcDbLinetypeTableRecord
  2
ByBlock
 70
     0
  3

 72
    65
 73
     0
 40
0.0
  0
LTYPE
  5
15
330
5
100
AcDbSymbolTableRecord
100
AcDbLinetypeTableRecord
  2
ByLayer
 70
     0
  3

 72
    65
 73
     0
 40
0.0
  0
LTYPE
  5
16
330
5
100
AcDbSymbolTableRecord
100
AcDbLinetypeTableRecord
  2
Continuous
 70
     0
  3
Solid line
 72
    65
 73
     0
 40
0.0
  0
LTYPE
  5
5E
330
5
100
AcDbSymbolTableRecord
100
AcDbLinetypeTableRecord
  2
HIDDEN
 70
     0
  3
Hidden __ __ __ __ __ __ __ __ __ __ __ __ __ __
 72
    65
 73
     2
 40
1.905
 49
1.27
 74
     0
 49
-0.635
 74
     0
  0
LTYPE
  5
5F
330
5
100
AcDbSymbolTableRecord
100
AcDbLinetypeTableRecord
  2
PHANTOM
 70
     0
  3
Phantom ______  __  __  ______  __  __  ______
 72
    65
 73
     6
 40
12.7
 49
6.35
 74
     0
 49
-1.27
 74
     0
 49
1.27
 74
     0
 49
-1.27
 74
     0
 49
1.27
 74
     0
 49
-1.27
 74
     0
  0
LTYPE
  5
60
330
5
100
AcDbSymbolTableRecord
100
AcDbLinetypeTableRecord
  2
CENTER
 70
     0
  3
Center ____ _ ____ _ ____ _ ____ _ ____ _ ____
 72
    65
 73
     4
 40
10.16
 49
6.35
 74
     0
 49
-1.27
 74
     0
 49
1.27
 74
     0
 49
-1.27
 74
     0
  0
LTYPE
  5
61
330
5
100
AcDbSymbolTableRecord
100
AcDbLinetypeTableRecord
  2
CENTERX2
 70
     0
  3
Center (2x) ________  __  ________  __  _____
 72
    65
 73
     4
 40
20.32
 49
12.7
 74
     0
 49
-2.54
 74
     0
 49
2.54
 74
     0
 49
-2.54
 74
     0
  0
LTYPE
  5
62
330
5
100
AcDbSymbolTableRecord
100
AcDbLinetypeTableRecord
  2
DOT2
 70
     0
  3
Dot (.5x) ........................................
 72
    65
 73
     2
 40
0.635
 49
0.0
 74
     0
 49
-0.635
 74
     0
  0
ENDTAB
  0
TABLE
  2
LAYER
  5
2
330
0
100
AcDbSymbolTable
 70
     1
  0
LAYER
  5
10
330
2
100
AcDbSymbolTableRecord
100
AcDbLayerTableRecord
  2
0
 70
     0
 62
     7
  6
Continuous
370
    -3
390
F
  0
ENDTAB
  0
TABLE
  2
STYLE
  5
3
330
0
100
AcDbSymbolTable
 70
     1
  0
STYLE
  5
11
330
3
100
AcDbSymbolTableRecord
100
AcDbTextStyleTableRecord
  2
Standard
 70
     0
 40
0.0
 41
1.0
 50
0.0
 71
     0
 42
3.5
  3
txt
  4

  0
ENDTAB
  0
TABLE
  2
VIEW
  5
6
330
0
100
AcDbSymbolTable
 70
     0
  0
ENDTAB
  0
TABLE
  2
UCS
  5
7
330
0
100
AcDbSymbolTable
 70
     0
  0
ENDTAB
  0
TABLE
  2
APPID
  5
9
330
0
100
AcDbSymbolTable
 70
     1
  0
APPID
  5
12
330
9
100
AcDbSymbolTableRecord
100
AcDbRegAppTableRecord
  2
ACAD
 70
     0
  0
ENDTAB
  0
TABLE
  2
DIMSTYLE
  5
A
330
0
100
AcDbSymbolTable
 70
     1
100
AcDbDimStyleTable
  0
DIMSTYLE
105
27
330
A
100
AcDbSymbolTableRecord
100
AcDbDimStyleTableRecord
  2
ISO-25
 70
     0
 41
2.5
 42
0.625
 43
3.75
 44
1.25
 73
     0
 74
     0
 77
     1
 78
     8
140
2.5
141
2.5
143
0.0393700787
147
0.625
171
     3
172
     1
178
     0
271
     2
272
     2
274
     3
278
    44
283
     0
284
     8
340
11
  0
ENDTAB
  0
TABLE
  2
BLOCK_RECORD
  5
1
330
0
100
AcDbSymbolTable
 70
     1
  0
BLOCK_RECORD
  5
1F
330
1
100
AcDbSymbolTableRecord
100
AcDbBlockTableRecord
  2
*Model_Space
340
22
  0
BLOCK_RECORD
  5
1B
330
1
100
AcDbSymbolTableRecord
100
AcDbBlockTableRecord
  2
*Paper_Space
340
1E
  0
BLOCK_RECORD
  5
23
330
1
100
AcDbSymbolTableRecord
100
AcDbBlockTableRecord
  2
*Paper_Space0
340
26
  0
ENDTAB
  0
ENDSEC
  0
SECTION
  2
BLOCKS
  0
BLOCK
  5
20
330
1F
100
AcDbEntity
  8
0
100
AcDbBlockBegin
  2
*Model_Space
 70
     0
 10
0.0
 20
0.0
 30
0.0
  3
*Model_Space
  1

  0
ENDBLK
  5
21
330
1F
100
AcDbEntity
  8
0
100
AcDbBlockEnd
  0
BLOCK
  5
1C
330
1B
100
AcDbEntity
 67
     1
  8
0
100
AcDbBlockBegin
  2
*Paper_Space
 70
     0
 10
0.0
 20
0.0
 30
0.0
  3
*Paper_Space
  1

  0
ENDBLK
  5
1D
330
1B
100
AcDbEntity
 67
     1
  8
0
100
AcDbBlockEnd
  0
BLOCK
  5
24
330
23
100
AcDbEntity
  8
0
100
AcDbBlockBegin
  2
*Paper_Space0
 70
     0
 10
0.0
 20
0.0
 30
0.0
  3
*Paper_Space0
  1

  0
ENDBLK
  5
25
330
23
100
AcDbEntity
  8
0
100
AcDbBlockEnd
  0
ENDSEC
  0
SECTION
  2
ENTITIES
  0
SPLINE
  5
67
330
1F
100
AcDbEntity
  8
0
  6
Continuous
 62
     7
370
    25
100
AcDbSpline
210
0.0
220
0.0
230
1.0
 70
     8
 71
     3
 72
    22
 73
    18
 74
     0
 42
0.00000001
 43
0.00000001
 40
0.1804557103881425
 40
0.1804557103881425
 40
0.1804557103881425
 40
0.1804557103881425
 40
0.2218188992540535
 40
0.2218188992540535
 40
0.2218188992540535
 40
0.2675933250994695
 40
0.2675933250994695
 40
0.2675933250994695
 40
0.3140107201800105
 40
0.3140107201800105
 40
0.3480141607622675
 40
0.3480141607622675
 40
0.3480141607622675
 40
0.399882701234446
 40
0.399882701234446
 40
0.399882701234446
 40
0.4368711653811605
 40
0.4368711653811605
 40
0.4368711653811605
 40
0.4368711653811605
 10
55.09549999999999
 20
-26.61505182029435
 30
0.0
 10
55.36402569067909
 20
-26.61505182029435
 30
0.0
 10
55.63255138135809
 20
-26.61505182029435
 30
0.0
 10
55.9010770720372
 20
-26.61505182029435
 30
0.0
 10
56.23415220759099
 20
-26.61505182029435
 30
0.0
 10
56.4936409759876
 20
-26.49498985282725
 30
0.0
 10
56.68341634391939
 20
-26.2587388845856
 30
0.0
 10
56.862962069346
 20
-26.03522277742195
 30
0.0
 10
56.95065104570099
 20
-25.75912618125485
 30
0.0
 10
56.95065104570099
 20
-25.18205414407435
 30
0.0
 10
56.8886835786212
 20
-24.9690409759876
 30
0.0
 10
56.7608756777692
 20
-24.79088450813325
 30
0.0
 10
56.5753249249877
 20
-24.53223800425605
 30
0.0
 10
56.2728818745159
 20
-24.40746080557705
 30
0.0
 10
55.8700933384973
 20
-24.4035878388846
 30
0.0
 10
55.62999160231829
 20
-24.4012791683444
 30
0.0
 10
55.38984546862899
 20
-24.4035878388846
 30
0.0
 10
55.14972153369479
 20
-24.4035878388846
 30
0.0
  0
SPLINE
  5
69
330
1F
100
AcDbEntity
  8
0
  6
Continuous
 62
     7
370
    25
100
AcDbSpline
210
0.0
220
0.0
230
1.0
 70
     8
 71
     3
 72
    14
 73
    10
 74
     0
 42
0.00000001
 43
0.00000001
 40
0.0
 40
0.0
 40
0.0
 40
0.0
 40
0.0900709317069125
 40
0.0900709317069125
 40
0.0900709317069125
 40
0.1200168756093178
 40
0.1200168756093178
 40
0.1200168756093178
 40
0.162160453774374
 40
0.162160453774374
 40
0.162160453774374
 40
0.162160453774374
 10
57.30696398140979
 20
-25.426051045701
 30
0.0
 10
57.30696398140979
 20
-26.1386769171185
 30
0.0
 10
57.03198334624319
 20
-26.61117885360185
 30
0.0
 10
56.48202207591009
 20
-26.84742982184355
 30
0.0
 10
56.29418100229169
 20
-26.92812211403175
 30
0.0
 10
56.10634430673899
 20
-26.9713647560031
 30
0.0
 10
55.9165689388071
 20
-26.9713647560031
 30
0.0
 10
55.6428792925381
 20
-26.9713647560031
 30
0.0
 10
55.36918964626899
 20
-26.9713647560031
 30
0.0
 10
55.09549999999999
 20
-26.9713647560031
 30
0.0
  0
SPLINE
  5
6A
330
1F
100
AcDbEntity
  8
0
  6
Continuous
 62
     7
370
    25
100
AcDbSpline
210
0.0
220
0.0
230
1.0
 70
     8
 71
     3
 72
    14
 73
    10
 74
     0
 42
0.00000001
 43
0.00000001
 40
0.864622219470463
 40
0.864622219470463
 40
0.864622219470463
 40
0.864622219470463
 40
0.89067307399659
 40
0.89067307399659
 40
0.89067307399659
 40
0.945373774917012
 40
0.945373774917012
 40
0.945373774917012
 40
1.0
 40
1.0
 40
1.0
 40
1.0
 10
55.5021615027111
 20
-24.04727490317585
 30
0.0
 10
55.671281048283
 20
-24.04727490317585
 30
0.0
 10
55.84040059385489
 20
-24.04727490317585
 30
0.0
 10
56.0095201394268
 20
-24.04727490317585
 30
0.0
 10
56.40456274206039
 20
-24.04727490317585
 30
0.0
 10
56.72214601084429
 20
-24.18282873741285
 30
0.0
 10
56.96226994577849
 20
-24.44619047250195
 30
0.0
 10
57.19326304615319
 20
-24.69953774388075
 30
0.0
 10
57.30696398140979
 20
-25.0271354763749
 30
0.0
 10
57.30696398140979
 20
-25.426051045701
 30
0.0
  0
SPLINE
  5
74
330
1F
100
AcDbEntity
  8
0
  6
Continuous
 62
     7
370
    25
100
AcDbSpline
210
0.0
220
0.0
230
1.0
 70
     8
 71
     3
 72
    18
 73
    14
 74
     0
 42
0.00000001
 43
0.00000001
 40
0.492799621153693
 40
0.492799621153693
 40
0.492799621153693
 40
0.492799621153693
 40
0.580177007675088
 40
0.580177007675088
 40
0.632305562133875
 40
0.632305562133875
 40
0.632305562133875
 40
0.682003389461736
 40
0.682003389461736
 40
0.708082447366455
 40
0.708082447366455
 40
0.708082447366455
 40
0.878954951307715
 40
0.878954951307715
 40
0.878954951307715
 40
0.878954951307715
 10
57.1807534562212
 20
20.85920752688175
 30
0.0
 10
57.353564516129
 20
21.6195761904762
 30
0.0
 10
57.77599155145929
 20
21.99976052227345
 30
0.0
 10
58.85510061443929
 20
21.99976052227345
 30
0.0
 10
59.17000076804919
 20
21.89991413210445
 30
0.0
 10
59.39657526881719
 20
21.7117420890937
 30
0.0
 10
59.6394051995961
 20
21.510069773701
 30
0.0
 10
59.75371812596009
 20
21.2086698924731
 30
0.0
 10
59.75371812596009
 20
20.61727204301075
 30
0.0
 10
59.71147542242699
 20
20.43294024577575
 30
0.0
 10
59.6193095238095
 20
20.2716499231951
 30
0.0
 10
59.03764029697899
 20
19.2537287762417
 30
0.0
 10
58.29826497695849
 20
18.3259253968254
 30
0.0
 10
57.63774270353299
 20
17.35306313364055
 30
0.0
  0
SPLINE
  5
76
330
1F
100
AcDbEntity
  8
0
  6
Continuous
 62
     7
370
    25
100
AcDbSpline
210
0.0
220
0.0
230
1.0
 70
     8
 71
     3
 72
    13
 73
     9
 74
     0
 42
0.00000001
 43
0.00000001
 40
0.372532301477277
 40
0.372532301477277
 40
0.372532301477277
 40
0.372532301477277
 40
0.382866620916543
 40
0.382866620916543
 40
0.382866620916543
 40
0.4135734196525765
 40
0.4135734196525765
 40
0.475507471340509
 40
0.475507471340509
 40
0.475507471340509
 40
0.475507471340509
 10
59.21608371735789
 20
21.40836267281105
 30
0.0
 10
59.14695929339479
 20
21.4621261136713
 30
0.0
 10
59.08935560675879
 20
21.5043688172043
 30
0.0
 10
59.0394324116743
 20
21.5274102918587
 30
0.0
 10
58.87407704844329
 20
21.6037281518115
 30
0.0
 10
58.67844930875579
 20
21.6464579109063
 30
0.0
 10
57.9948855606759
 20
21.6464579109063
 30
0.0
 10
57.69150614439319
 20
21.38148095238095
 30
0.0
 10
57.53789631336409
 20
20.85920752688175
 30
0.0
  0
SPLINE
  5
77
330
1F
100
AcDbEntity
  8
0
  6
Continuous
 62
     7
370
    25
100
AcDbSpline
210
0.0
220
0.0
230
1.0
 70
     8
 71
     3
 72
    16
 73
    12
 74
     0
 42
0.00000001
 43
0.00000001
 40
0.1422582157256604
 40
0.1422582157256604
 40
0.1422582157256604
 40
0.1422582157256604
 40
0.3175472006610985
 40
0.3175472006610985
 40
0.3175472006610985
 40
0.344748106608521
 40
0.344748106608521
 40
0.3640154149879445
 40
0.3640154149879445
 40
0.3640154149879445
 40
0.372532301477277
 40
0.372532301477277
 40
0.372532301477277
 40
0.372532301477277
 10
57.21147542242699
 20
17.34922288786485
 30
0.0
 10
57.88735867895549
 20
18.3489668714798
 30
0.0
 10
58.56324193548389
 20
19.34871085509475
 30
0.0
 10
59.23912519201229
 20
20.3484548387097
 30
0.0
 10
59.3506779270306
 20
20.5134599259243
 30
0.0
 10
59.40425576036869
 20
20.69023671274965
 30
0.0
 10
59.40425576036869
 20
21.00513686635945
 30
0.0
 10
59.3735337941628
 20
21.13570522273425
 30
0.0
 10
59.3082496159754
 20
21.2585930875576
 30
0.0
 10
59.28080341158889
 20
21.31025653110865
 30
0.0
 10
59.24680568356369
 20
21.3584394777266
 30
0.0
 10
59.21608371735789
 20
21.40836267281105
 30
0.0
  0
SPLINE
  5
7C
330
1F
100
AcDbEntity
  8
0
  6
Continuous
 62
     7
370
    25
100
AcDbSpline
210
0.0
220
0.0
230
1.0
 70
     8
 71
     3
 72
    18
 73
    14
 74
     0
 42
0.00000001
 43
0.00000001
 40
0.49282092107705
 40
0.49282092107705
 40
0.49282092107705
 40
0.49282092107705
 40
0.580183549411038
 40
0.580183549411038
 40
0.632303299269383
 40
0.632303299269383
 40
0.632303299269383
 40
0.682052927483216
 40
0.682052927483216
 40
0.708159168031069
 40
0.708159168031069
 40
0.708159168031069
 40
0.878986763908568
 40
0.878986763908568
 40
0.878986763908568
 40
0.878986763908568
 10
55.10702073732719
 20
14.2885470046083
 30
0.0
 10
55.27983179723499
 20
15.04891566820275
 30
0.0
 10
55.70225883256529
 20
15.4291
 30
0.0
 10
56.78136789554529
 20
15.4291
 30
0.0
 10
57.1001082949309
 20
15.32925360983105
 30
0.0
 10
57.32284254992319
 20
15.1410815668203
 30
0.0
 10
57.56624685286359
 20
14.93544689709474
 30
0.0
 10
57.6838256528418
 20
14.6380093701997
 30
0.0
 10
57.6838256528418
 20
14.04661152073732
 30
0.0
 10
57.63774270353299
 20
13.8622797235023
 30
0.0
 10
57.54557680491549
 20
13.70098940092166
 30
0.0
 10
56.96390757808499
 20
12.68306825396826
 30
0.0
 10
56.22453225806449
 20
11.75526487455198
 30
0.0
 10
55.56400998463899
 20
10.78240261136712
 30
0.0
  0
SPLINE
  5
7E
330
1F
100
AcDbEntity
  8
0
  6
Continuous
 62
     7
370
    25
100
AcDbSpline
210
0.0
220
0.0
230
1.0
 70
     8
 71
     3
 72
    13
 73
     9
 74
     0
 42
0.00000001
 43
0.00000001
 40
0.372482199250612
 40
0.372482199250612
 40
0.372482199250612
 40
0.372482199250612
 40
0.382813802663217
 40
0.382813802663217
 40
0.382813802663217
 40
0.4140049122240365
 40
0.4140049122240365
 40
0.475347427693648
 40
0.475347427693648
 40
0.475347427693648
 40
0.475347427693648
 10
57.14235099846389
 20
14.83770215053764
 30
0.0
 10
57.07322657450079
 20
14.89146559139786
 30
0.0
 10
57.01562288786479
 20
14.93370829493088
 30
0.0
 10
56.96569969278029
 20
14.95674976958526
 30
0.0
 10
56.80034432954929
 20
15.03306762953805
 30
0.0
 10
56.60855683563749
 20
15.0757973886329
 30
0.0
 10
55.9249930875576
 20
15.0757973886329
 30
0.0
 10
55.61777342549919
 20
14.81466067588326
 30
0.0
 10
55.46800384024579
 20
14.2885470046083
 30
0.0
  0
SPLINE
  5
7F
330
1F
100
AcDbEntity
  8
0
  6
Continuous
 62
     7
370
    25
100
AcDbSpline
210
0.0
220
0.0
230
1.0
 70
     8
 71
     3
 72
    16
 73
    12
 74
     0
 42
0.00000001
 43
0.00000001
 40
0.14222082796066
 40
0.14222082796066
 40
0.14222082796066
 40
0.14222082796066
 40
0.317567922878623
 40
0.317567922878623
 40
0.317567922878623
 40
0.3447286808835865
 40
0.3447286808835865
 40
0.363967551137102
 40
0.363967551137102
 40
0.363967551137102
 40
0.372482199250612
 40
0.372482199250612
 40
0.372482199250612
 40
0.372482199250612
 10
55.13774270353299
 20
10.7785623655914
 30
0.0
 10
55.81490604198669
 20
11.77830634920636
 30
0.0
 10
56.4920693804403
 20
12.7780503328213
 30
0.0
 10
57.16923271889399
 20
13.77779431643626
 30
0.0
 10
57.27972242255099
 20
13.94091805661794
 30
0.0
 10
57.3305230414746
 20
14.1195761904762
 30
0.0
 10
57.3305230414746
 20
14.43447634408602
 30
0.0
 10
57.29980107526879
 20
14.56504470046084
 30
0.0
 10
57.23451689708139
 20
14.6879325652842
 30
0.0
 10
57.20707069269489
 20
14.7395960088352
 30
0.0
 10
57.17307296466969
 20
14.78777895545316
 30
0.0
 10
57.14235099846389
 20
14.83770215053764
 30
0.0
  0
SPLINE
  5
84
330
1F
100
AcDbEntity
  8
0
  6
Continuous
 62
     7
370
    25
100
AcDbSpline
210
0.0
220
0.0
230
1.0
 70
    11
 71
     3
 72
    20
 73
    16
 74
     0
 42
0.00000001
 43
0.00000001
 40
0.0
 40
0.0
 40
0.0
 40
0.0
 40
0.1269220683308412
 40
0.1269220683308412
 40
0.1269220683308412
 40
0.2527776186066345
 40
0.2527776186066345
 40
0.3733003065826055
 40
0.3733003065826055
 40
0.3733003065826055
 40
0.465133528984362
 40
0.465133528984362
 40
0.7325667644921809
 40
0.7325667644921809
 40
1.0
 40
1.0
 40
1.0
 40
1.0
 10
-67.5576393568147
 20
-31.0517575803982
 30
0.0
 10
-67.5576393568147
 20
-31.6298586523737
 30
0.0
 10
-67.622723583461
 20
-32.13904701378255
 30
0.0
 10
-67.7605490045942
 20
-32.5754941807045
 30
0.0
 10
-67.9691386952681
 20
-33.23602820117191
 30
0.0
 10
-68.28887978560489
 20
-33.5709
 30
0.0
 10
-69.1732595712098
 20
-33.5709
 30
0.0
 10
-69.49102373660031
 20
-33.23782189892805
 30
0.0
 10
-69.69776186830019
 20
-32.5678372128637
 30
0.0
 10
-69.83594684115661
 20
-32.12001554156965
 30
0.0
 10
-69.9045
 20
-31.6183732006126
 30
0.0
 10
-69.9045
 20
-29.40168101071975
 30
0.0
 10
-69.5139946401225
 20
-28.5709
 30
0.0
 10
-67.9443162327718
 20
-28.5709
 30
0.0
 10
-67.5576393568147
 20
-29.40168101071975
 30
0.0
 10
-67.5576393568147
 20
-31.0517575803982
 30
0.0
  0
SPLINE
  5
85
330
1F
100
AcDbEntity
  8
0
  6
Continuous
 62
     7
370
    25
100
AcDbSpline
210
0.0
220
0.0
230
1.0
 70
     8
 71
     3
 72
    18
 73
    14
 74
     0
 42
0.00000001
 43
0.00000001
 40
0.492774581481632
 40
0.492774581481632
 40
0.492774581481632
 40
0.492774581481632
 40
0.580198875697001
 40
0.580198875697001
 40
0.6323554148595789
 40
0.6323554148595789
 40
0.6323554148595789
 40
0.682109317687165
 40
0.682109317687165
 40
0.708217801349165
 40
0.708217801349165
 40
0.708217801349165
 40
0.879076006372398
 40
0.879076006372398
 40
0.879076006372398
 40
0.879076006372398
 10
-60.11506661562021
 20
-29.7079597243492
 30
0.0
 10
-59.94278483920371
 20
-28.9499199081164
 30
0.0
 10
-59.52165160796321
 20
-28.5709
 30
0.0
 10
-58.44584762634001
 20
-28.5709
 30
0.0
 10
-58.13191194486981
 20
-28.67044058192955
 30
0.0
 10
-57.90603139356821
 20
-28.8580362940276
 30
0.0
 10
-57.66394519917751
 20
-29.05909093004695
 30
0.0
 10
-57.54998238897401
 20
-29.35956768759575
 30
0.0
 10
-57.54998238897401
 20
-29.94915421133235
 30
0.0
 10
-57.59592419601841
 20
-30.13292143950995
 30
0.0
 10
-57.6878078101072
 20
-30.2937177641654
 30
0.0
 10
-58.2673813758982
 20
-31.3079715042997
 30
0.0
 10
-59.00225395610011
 20
-32.23348295048495
 30
0.0
 10
-59.65947702909651
 20
-33.20336554364474
 30
0.0
  0
SPLINE
  5
87
330
1F
100
AcDbEntity
  8
0
  6
Continuous
 62
     7
370
    25
100
AcDbSpline
210
0.0
220
0.0
230
1.0
 70
     8
 71
     3
 72
    13
 73
     9
 74
     0
 42
0.00000001
 43
0.00000001
 40
0.372622037757295
 40
0.372622037757295
 40
0.372622037757295
 40
0.372622037757295
 40
0.382967058356575
 40
0.382967058356575
 40
0.382967058356575
 40
0.413629189374823
 40
0.413629189374823
 40
0.475473148547221
 40
0.475473148547221
 40
0.475473148547221
 40
0.475473148547221
 10
-58.08979862174581
 20
-29.1604865237366
 30
0.0
 10
-58.15488284839201
 20
-29.10688774885145
 30
0.0
 10
-58.2161385911179
 20
-29.06477442572745
 30
0.0
 10
-58.26590888208271
 20
-29.0418035222052
 30
0.0
 10
-58.4276016322415
 20
-28.967176099055
 30
0.0
 10
-58.62195788667691
 20
-28.92312052067385
 30
0.0
 10
-59.30342802450231
 20
-28.92312052067385
 30
0.0
 10
-59.6058782542114
 20
-29.1872859111792
 30
0.0
 10
-59.759017611026
 20
-29.7079597243492
 30
0.0
  0
SPLINE
  5
89
330
1F
100
AcDbEntity
  8
0
  6
Continuous
 62
     7
370
    25
100
AcDbSpline
210
0.0
220
0.0
230
1.0
 70
     8
 71
     3
 72
    13
 73
     9
 74
     0
 42
0.00000001
 43
0.00000001
 40
0.142148548741887
 40
0.142148548741887
 40
0.142148548741887
 40
0.142148548741887
 40
0.317531635851694
 40
0.317531635851694
 40
0.317531635851694
 40
0.34473490601343
 40
0.34473490601343
 40
0.36400388904466
 40
0.36400388904466
 40
0.36400388904466
 40
0.36400388904466
 10
-60.08443874425731
 20
-33.20719402756511
 30
0.0
 10
-59.41062557427261
 20
-32.21051204696275
 30
0.0
 10
-58.73681240428791
 20
-31.2138300663604
 30
0.0
 10
-58.06299923430321
 20
-30.21714808575805
 30
0.0
 10
-57.95178816156671
 20
-30.052648374002
 30
0.0
 10
-57.8983744257274
 20
-29.87641301684535
 30
0.0
 10
-57.8983744257274
 20
-29.5624773353752
 30
0.0
 10
-57.93283078101081
 20
-29.43230888208275
 30
0.0
 10
-57.99408652373661
 20
-29.30979739663095
 30
0.0
  0
SPLINE
  5
95
330
1F
100
AcDbEntity
  8
0
  6
Continuous
 62
     7
370
    25
100
AcDbSpline
210
0.0
220
0.0
230
1.0
 70
    11
 71
     3
 72
    20
 73
    16
 74
     0
 42
0.00000001
 43
0.00000001
 40
0.0
 40
0.0
 40
0.0
 40
0.0
 40
0.1268750411368232
 40
0.1268750411368232
 40
0.1268750411368232
 40
0.252247304812349
 40
0.252247304812349
 40
0.3733333372511045
 40
0.3733333372511045
 40
0.3733333372511045
 40
0.465353270305671
 40
0.465353270305671
 40
0.733330237511875
 40
0.733330237511875
 40
1.0
 40
1.0
 40
1.0
 40
1.0
 10
-63.4213453292496
 20
-24.05175758039815
 30
0.0
 10
-63.4213453292496
 20
-24.6298586523736
 30
0.0
 10
-63.4902580398162
 20
-25.1390470137825
 30
0.0
 10
-63.6242549770291
 20
-25.5754941807044
 30
0.0
 10
-63.82756359908389
 20
-26.2376994068259
 30
0.0
 10
-64.15641424196019
 20
-26.5709
 30
0.0
 10
-65.0369655436447
 20
-26.5709
 30
0.0
 10
-65.35855819295561
 20
-26.237821898928
 30
0.0
 10
-65.56146784073509
 20
-25.56783721286365
 30
0.0
 10
-65.6976310535597
 20
-25.1182416988199
 30
0.0
 10
-65.7720344563553
 20
-24.6183732006125
 30
0.0
 10
-65.7720344563553
 20
-22.4016810107197
 30
0.0
 10
-65.3777006125574
 20
-21.5709
 30
0.0
 10
-63.81185068912709
 20
-21.5709
 30
0.0
 10
-63.4213453292496
 20
-22.4016810107197
 30
0.0
 10
-63.4213453292496
 20
-24.05175758039815
 30
0.0
  0
CIRCLE
  5
AB
330
1F
100
AcDbEntity
  8
0
  6
Continuous
 62
     7
370
    25
100
AcDbCircle
 10
-117.5385
 20
-15.8877
 30
0.0
 40
1.892300000000006
  0
CIRCLE
  5
AC
330
1F
100
AcDbEntity
  8
0
  6
Continuous
 62
     7
370
    25
100
AcDbCircle
 10
-117.5385
 20
15.8623
 30
0.0
 40
1.892300000000006
  0
CIRCLE
  5
AD
330
1F
100
AcDbEntity
  8
0
  6
Continuous
 62
     7
370
    25
100
AcDbCircle
 10
117.5385
 20
-15.8877
 30
0.0
 40
1.892300000000006
  0
CIRCLE
  5
AE
330
1F
100
AcDbEntity
  8
0
  6
Continuous
 62
     7
370
    25
100
AcDbCircle
 10
117.5385
 20
15.8623
 30
0.0
 40
1.892300000000006
  0
SPLINE
  5
C5
330
1F
100
AcDbEntity
  8
0
  6
Continuous
 62
     7
370
    25
100
AcDbSpline
210
0.0
220
0.0
230
1.0
 70
    11
 71
     3
 72
    20
 73
    16
 74
     0
 42
0.00000001
 43
0.00000001
 40
0.0
 40
0.0
 40
0.0
 40
0.0
 40
0.1269113206551194
 40
0.1269113206551194
 40
0.1269113206551194
 40
0.252235429630062
 40
0.252235429630062
 40
0.3732749536827845
 40
0.3732749536827845
 40
0.3732749536827845
 40
0.465303459799184
 40
0.465303459799184
 40
0.733305393151671
 40
0.733305393151671
 40
1.0
 40
1.0
 40
1.0
 40
1.0
 10
-60.45044180704441
 20
-24.05175758039815
 30
0.0
 10
-60.45044180704441
 20
-24.6298586523736
 30
0.0
 10
-60.51552603369071
 20
-25.1390470137825
 30
0.0
 10
-60.65335145482391
 20
-25.5754941807044
 30
0.0
 10
-60.8619411454978
 20
-26.23602820117185
 30
0.0
 10
-61.18551071975501
 20
-26.5709
 30
0.0
 10
-62.06606202143951
 20
-26.5709
 30
0.0
 10
-62.38765467075041
 20
-26.237821898928
 30
0.0
 10
-62.5905643185298
 20
-25.56783721286365
 30
0.0
 10
-62.7267275313545
 20
-25.1182416988199
 30
0.0
 10
-62.8011309341501
 20
-24.6183732006125
 30
0.0
 10
-62.8011309341501
 20
-22.4016810107197
 30
0.0
 10
-62.40679709035221
 20
-21.5709
 30
0.0
 10
-60.84094716692191
 20
-21.5709
 30
0.0
 10
-60.45044180704441
 20
-22.4016810107197
 30
0.0
 10
-60.45044180704441
 20
-24.05175758039815
 30
0.0
  0
SPLINE
  5
E4
330
1F
100
AcDbEntity
  8
0
  6
Continuous
 62
     7
370
    25
100
AcDbSpline
210
0.0
220
0.0
230
1.0
 70
     8
 71
     3
 72
    22
 73
    18
 74
     0
 42
0.00000001
 43
0.00000001
 40
0.1804459965110035
 40
0.1804459965110035
 40
0.1804459965110035
 40
0.1804459965110035
 40
0.217457700999113
 40
0.217457700999113
 40
0.217457700999113
 40
0.2693400782377615
 40
0.2693400782377615
 40
0.2693400782377615
 40
0.30365439739345
 40
0.30365439739345
 40
0.3497642637589065
 40
0.3497642637589065
 40
0.3497642637589065
 40
0.395536527607468
 40
0.395536527607468
 40
0.395536527607468
 40
0.436897762826062
 40
0.436897762826062
 40
0.436897762826062
 40
0.436897762826062
 10
55.14972153369479
 20
-31.0031230828815
 30
0.0
 10
55.38984546862899
 20
-31.0031230828815
 30
0.0
 10
55.62996940356309
 20
-31.0031230828815
 30
0.0
 10
55.8700933384973
 20
-31.0031230828815
 30
0.0
 10
56.2728818745159
 20
-31.0031230828815
 30
0.0
 10
56.5753249249877
 20
-31.13177324825295
 30
0.0
 10
56.7608756777692
 20
-31.39041975213015
 30
0.0
 10
56.8886835786212
 20
-31.5685762199845
 30
0.0
 10
56.95065104570099
 20
-31.77771642137881
 30
0.0
 10
56.95065104570099
 20
-32.35866142525175
 30
0.0
 10
56.862962069346
 20
-32.63475802141885
 30
0.0
 10
56.68341634391939
 20
-32.8582741285825
 30
0.0
 10
56.4936409759876
 20
-33.09452509682415
 30
0.0
 10
56.23415220759099
 20
-33.21458706429125
 30
0.0
 10
55.9010770720372
 20
-33.21458706429125
 30
0.0
 10
55.63255138135809
 20
-33.21458706429125
 30
0.0
 10
55.36402569067909
 20
-33.21458706429125
 30
0.0
 10
55.09549999999999
 20
-33.21458706429125
 30
0.0
  0
SPLINE
  5
E6
330
1F
100
AcDbEntity
  8
0
  6
Continuous
 62
     7
370
    25
100
AcDbSpline
210
0.0
220
0.0
230
1.0
 70
     8
 71
     3
 72
    14
 73
    10
 74
     0
 42
0.00000001
 43
0.00000001
 40
0.0
 40
0.0
 40
0.0
 40
0.0
 40
0.0421526480723964
 40
0.0421526480723964
 40
0.0421526480723964
 40
0.0720849264928241
 40
0.0720849264928241
 40
0.0720849264928241
 40
0.162151604010471
 40
0.162151604010471
 40
0.162151604010471
 40
0.162151604010471
 10
55.09549999999999
 20
-33.5709
 30
0.0
 10
55.36918964626899
 20
-33.5709
 30
0.0
 10
55.6428792925381
 20
-33.5709
 30
0.0
 10
55.9165689388071
 20
-33.5709
 30
0.0
 10
56.10634430673899
 20
-33.5709
 30
0.0
 10
56.29558555064799
 20
-33.5270539957066
 30
0.0
 10
56.48202207591009
 20
-33.44696506584045
 30
0.0
 10
57.03198334624319
 20
-33.21071409759875
 30
0.0
 10
57.30696398140979
 20
-32.73821216111539
 30
0.0
 10
57.30696398140979
 20
-32.0255862896979
 30
0.0
  0
SPLINE
  5
E7
330
1F
100
AcDbEntity
  8
0
  6
Continuous
 62
     7
370
    25
100
AcDbSpline
210
0.0
220
0.0
230
1.0
 70
     8
 71
     3
 72
    14
 73
    10
 74
     0
 42
0.00000001
 43
0.00000001
 40
0.864628613572198
 40
0.864628613572198
 40
0.864628613572198
 40
0.864628613572198
 40
0.919252258574177
 40
0.919252258574177
 40
0.919252258574177
 40
0.973950375895981
 40
0.973950375895981
 40
0.973950375895981
 40
1.0
 40
1.0
 40
1.0
 40
1.0
 10
57.30696398140979
 20
-32.0255862896979
 30
0.0
 10
57.30696398140979
 20
-31.6266707203718
 30
0.0
 10
57.19326304615319
 20
-31.29907298787765
 30
0.0
 10
56.96226994577849
 20
-31.04572571649885
 30
0.0
 10
56.72214601084429
 20
-30.78236398140975
 30
0.0
 10
56.40456274206039
 20
-30.64681014717275
 30
0.0
 10
56.0095201394268
 20
-30.64681014717275
 30
0.0
 10
55.84040059385489
 20
-30.64681014717275
 30
0.0
 10
55.671281048283
 20
-30.64681014717275
 30
0.0
 10
55.5021615027111
 20
-30.64681014717275
 30
0.0
  0
SPLINE
  5
106
330
1F
100
AcDbEntity
  8
0
  6
Continuous
 62
     7
370
    25
100
AcDbSpline
210
0.0
220
0.0
230
1.0
 70
    11
 71
     3
 72
    26
 73
    22
 74
     0
 42
0.00000001
 43
0.00000001
 40
0.0
 40
0.0
 40
0.0
 40
0.0
 40
0.126943043116585
 40
0.126943043116585
 40
0.126943043116585
 40
0.2511357057720835
 40
0.2511357057720835
 40
0.372406188129805
 40
0.372406188129805
 40
0.372406188129805
 40
0.502941464896698
 40
0.502941464896698
 40
0.627003918022257
 40
0.627003918022257
 40
0.627003918022257
 40
0.7495697813323321
 40
0.7495697813323321
 40
0.872135644642408
 40
0.872135644642408
 40
0.872135644642408
 40
1.0
 40
1.0
 40
1.0
 40
1.0
 10
-67.9060313935682
 20
-31.0517575803982
 30
0.0
 10
-67.9060313935682
 20
-30.580854058193
 30
0.0
 10
-67.94814471669221
 20
-30.1673777947933
 30
0.0
 10
-68.03237136294031
 20
-29.80750030627875
 30
0.0
 10
-68.1701524196676
 20
-29.2187994275349
 30
0.0
 10
-68.3960773353752
 20
-28.92312052067385
 30
0.0
 10
-69.039262633997
 20
-28.92312052067385
 30
0.0
 10
-69.2728001531394
 20
-29.2179137825421
 30
0.0
 10
-69.41828254211339
 20
-29.80750030627875
 30
0.0
 10
-69.50904134884371
 20
-30.1753123125017
 30
0.0
 10
-69.5561079632466
 20
-30.5885110260337
 30
0.0
 10
-69.5561079632466
 20
-31.49203323124044
 30
0.0
 10
-69.5063376722818
 20
-31.90550949464015
 30
0.0
 10
-69.414454058193
 20
-32.299843338438
 30
0.0
 10
-69.27600841239601
 20
-32.8940059016499
 30
0.0
 10
-69.0469196018377
 20
-33.19188009188365
 30
0.0
 10
-68.4190482388974
 20
-33.19188009188365
 30
0.0
 10
-68.1893392036754
 20
-32.89708683001535
 30
0.0
 10
-68.0438568147014
 20
-32.30367182235835
 30
0.0
 10
-67.9536507647318
 20
-31.93572609221905
 30
0.0
 10
-67.9060313935682
 20
-31.51500413476265
 30
0.0
 10
-67.9060313935682
 20
-31.0517575803982
 30
0.0
  0
SPLINE
  5
107
330
1F
100
AcDbEntity
  8
0
  6
Continuous
 62
     7
370
    25
100
AcDbSpline
210
0.0
220
0.0
230
1.0
 70
    11
 71
     3
 72
    26
 73
    22
 74
     0
 42
0.00000001
 43
0.00000001
 40
0.0
 40
0.0
 40
0.0
 40
0.0
 40
0.126919600245088
 40
0.126919600245088
 40
0.126919600245088
 40
0.2504360230443745
 40
0.2504360230443745
 40
0.3724993114577865
 40
0.3724993114577865
 40
0.3724993114577865
 40
0.503062749380629
 40
0.503062749380629
 40
0.6271519672411819
 40
0.6271519672411819
 40
0.6271519672411819
 40
0.749657079247029
 40
0.749657079247029
 40
0.8721621912528761
 40
0.8721621912528761
 40
0.8721621912528761
 40
1.0
 40
1.0
 40
1.0
 40
1.0
 10
-63.7735658499234
 20
-24.05175758039815
 30
0.0
 10
-63.7735658499234
 20
-23.5808540581929
 30
0.0
 10
-63.81185068912709
 20
-23.16737779479325
 30
0.0
 10
-63.89607733537521
 20
-22.8075003062787
 30
0.0
 10
-64.0338583921025
 20
-22.2187994275348
 30
0.0
 10
-64.2597833078101
 20
-21.9231205206738
 30
0.0
 10
-64.9067970903522
 20
-21.9231205206738
 30
0.0
 10
-65.13650612557431
 20
-22.2179137825421
 30
0.0
 10
-65.28198851454819
 20
-22.8075003062787
 30
0.0
 10
-65.37274732127861
 20
-23.17531231250165
 30
0.0
 10
-65.4198139356814
 20
-23.58851102603365
 30
0.0
 10
-65.4198139356814
 20
-24.4920332312404
 30
0.0
 10
-65.37387212863699
 20
-24.9055094946401
 30
0.0
 10
-65.2781600306279
 20
-25.29984333843795
 30
0.0
 10
-65.13447260558561
 20
-25.89183552961215
 30
0.0
 10
-64.9106255742726
 20
-26.19188009188355
 30
0.0
 10
-64.2827542113323
 20
-26.19188009188355
 30
0.0
 10
-64.0530451761102
 20
-25.8970868300153
 30
0.0
 10
-63.9075627871363
 20
-25.3036718223583
 30
0.0
 10
-63.8173567371666
 20
-24.93572609221895
 30
0.0
 10
-63.7735658499234
 20
-24.5150041347626
 30
0.0
 10
-63.7735658499234
 20
-24.05175758039815
 30
0.0
  0
SPLINE
  5
108
330
1F
100
AcDbEntity
  8
0
  6
Continuous
 62
     7
370
    25
100
AcDbSpline
210
0.0
220
0.0
230
1.0
 70
    11
 71
     3
 72
    26
 73
    22
 74
     0
 42
0.00000001
 43
0.00000001
 40
0.0
 40
0.0
 40
0.0
 40
0.0
 40
0.126919600245088
 40
0.126919600245088
 40
0.126919600245088
 40
0.2504360230443745
 40
0.2504360230443745
 40
0.3724993114577865
 40
0.3724993114577865
 40
0.3724993114577865
 40
0.503062749380629
 40
0.503062749380629
 40
0.6271519672411819
 40
0.6271519672411819
 40
0.6271519672411819
 40
0.749657079247029
 40
0.749657079247029
 40
0.8721621912528761
 40
0.8721621912528761
 40
0.8721621912528761
 40
1.0
 40
1.0
 40
1.0
 40
1.0
 10
-60.80266232771821
 20
-24.05175758039815
 30
0.0
 10
-60.80266232771821
 20
-23.5808540581929
 30
0.0
 10
-60.84094716692191
 20
-23.16737779479325
 30
0.0
 10
-60.92517381317001
 20
-22.8075003062787
 30
0.0
 10
-61.0629548698972
 20
-22.2187994275348
 30
0.0
 10
-61.28887978560491
 20
-21.9231205206738
 30
0.0
 10
-61.93589356814701
 20
-21.9231205206738
 30
0.0
 10
-62.16560260336901
 20
-22.2179137825421
 30
0.0
 10
-62.31108499234301
 20
-22.8075003062787
 30
0.0
 10
-62.40184379907341
 20
-23.17531231250165
 30
0.0
 10
-62.44891041347631
 20
-23.58851102603365
 30
0.0
 10
-62.44891041347631
 20
-24.4920332312404
 30
0.0
 10
-62.40296860643181
 20
-24.9055094946401
 30
0.0
 10
-62.30725650842261
 20
-25.29984333843795
 30
0.0
 10
-62.16356908338041
 20
-25.89183552961215
 30
0.0
 10
-61.93972205206741
 20
-26.19188009188355
 30
0.0
 10
-61.31185068912711
 20
-26.19188009188355
 30
0.0
 10
-61.082141653905
 20
-25.8970868300153
 30
0.0
 10
-60.93665926493111
 20
-25.3036718223583
 30
0.0
 10
-60.84645321496141
 20
-24.93572609221895
 30
0.0
 10
-60.80266232771821
 20
-24.5150041347626
 30
0.0
 10
-60.80266232771821
 20
-24.05175758039815
 30
0.0
  0
LINE
  5
10F
330
1F
100
AcDbEntity
  8
0
  6
Continuous
 62
     7
370
    25
100
AcDbLine
 10
57.2372505809
 20
-22.323804725
 30
0.0
 11
55.5021615027
 21
-22.323804725
 31
0.0
  0
LINE
  5
110
330
1F
100
AcDbEntity
  8
0
  6
Continuous
 62
     7
370
    25
100
AcDbLine
 10
57.2372505809
 20
-21.971364756
 30
0.0
 11
57.2372505809
 21
-22.323804725
 31
0.0
  0
LINE
  5
111
330
1F
100
AcDbEntity
  8
0
  6
Continuous
 62
     7
370
    25
100
AcDbLine
 10
55.1497215337
 20
-21.971364756
 30
0.0
 11
57.2372505809
 21
-21.971364756
 31
0.0
  0
LINE
  5
112
330
1F
100
AcDbEntity
  8
0
  6
Continuous
 62
     7
370
    25
100
AcDbLine
 10
55.1497215337
 20
-24.4035878389
 30
0.0
 11
55.1497215337
 21
-21.971364756
 31
0.0
  0
LINE
  5
113
330
1F
100
AcDbEntity
  8
0
  6
Continuous
 62
     7
370
    25
100
AcDbLine
 10
55.0955
 20
-26.971364756
 30
0.0
 11
55.0955
 21
-26.6150518203
 31
0.0
  0
LINE
  5
114
330
1F
100
AcDbEntity
  8
0
  6
Continuous
 62
     7
370
    25
100
AcDbLine
 10
55.5021615027
 20
-22.323804725
 30
0.0
 11
55.5021615027
 21
-24.0472749032
 31
0.0
  0
LINE
  5
115
330
1F
100
AcDbEntity
  8
0
  6
Continuous
 62
     7
370
    25
100
AcDbLine
 10
59.7120762974
 20
-33.5709
 30
0.0
 11
60.9320608056
 21
-28.5709
 31
0.0
  0
LINE
  5
116
330
1F
100
AcDbEntity
  8
0
  6
Continuous
 62
     7
370
    25
100
AcDbLine
 10
60.0645162665
 20
-33.5709
 30
0.0
 11
59.7120762974
 21
-33.5709
 31
0.0
  0
LINE
  5
117
330
1F
100
AcDbEntity
  8
0
  6
Continuous
 62
     7
370
    25
100
AcDbLine
 10
60.4285751356
 20
-32.0681889233
 30
0.0
 11
60.0645162665
 21
-33.5709
 31
0.0
  0
LINE
  5
118
330
1F
100
AcDbEntity
  8
0
  6
Continuous
 62
     7
370
    25
100
AcDbLine
 10
61.6485596437
 20
-32.0681889233
 30
0.0
 11
60.4285751356
 21
-32.0681889233
 31
0.0
  0
LINE
  5
119
330
1F
100
AcDbEntity
  8
0
  6
Continuous
 62
     7
370
    25
100
AcDbLine
 10
62.0087455461
 20
-33.5709
 30
0.0
 11
61.6485596437
 21
-32.0681889233
 31
0.0
  0
LINE
  5
11A
330
1F
100
AcDbEntity
  8
0
  6
Continuous
 62
     7
370
    25
100
AcDbLine
 10
62.3573125484
 20
-33.5709
 30
0.0
 11
62.0087455461
 21
-33.5709
 31
0.0
  0
LINE
  5
11B
330
1F
100
AcDbEntity
  8
0
  6
Continuous
 62
     7
370
    25
100
AcDbLine
 10
61.2031684741
 20
-28.5709
 30
0.0
 11
62.3573125484
 21
-33.5709
 31
0.0
  0
LINE
  5
11C
330
1F
100
AcDbEntity
  8
0
  6
Continuous
 62
     7
370
    25
100
AcDbLine
 10
60.9320608056
 20
-28.5709
 30
0.0
 11
61.2031684741
 21
-28.5709
 31
0.0
  0
LINE
  5
11D
330
1F
100
AcDbEntity
  8
0
  6
Continuous
 62
     7
370
    25
100
AcDbLine
 10
57.5378963134
 20
20.8592075269
 30
0.0
 11
57.1807534562
 21
20.8592075269
 31
0.0
  0
LINE
  5
11E
330
1F
100
AcDbEntity
  8
0
  6
Continuous
 62
     7
370
    25
100
AcDbLine
 10
57.1961144393
 20
16.9997605223
 30
0.0
 11
57.2114754224
 21
17.3492228879
 31
0.0
  0
LINE
  5
11F
330
1F
100
AcDbEntity
  8
0
  6
Continuous
 62
     7
370
    25
100
AcDbLine
 10
59.7844400922
 20
16.9997605223
 30
0.0
 11
57.1961144393
 21
16.9997605223
 31
0.0
  0
LINE
  5
120
330
1F
100
AcDbEntity
  8
0
  6
Continuous
 62
     7
370
    25
100
AcDbLine
 10
59.7844400922
 20
17.3530631336
 30
0.0
 11
59.7844400922
 21
16.9997605223
 31
0.0
  0
LINE
  5
121
330
1F
100
AcDbEntity
  8
0
  6
Continuous
 62
     7
370
    25
100
AcDbLine
 10
57.6377427035
 20
17.3530631336
 30
0.0
 11
59.7844400922
 21
17.3530631336
 31
0.0
  0
LINE
  5
122
330
1F
100
AcDbEntity
  8
0
  6
Continuous
 62
     7
370
    25
100
AcDbLine
 10
55.4680038402
 20
14.2885470046
 30
0.0
 11
55.1070207373
 21
14.2885470046
 31
0.0
  0
LINE
  5
123
330
1F
100
AcDbEntity
  8
0
  6
Continuous
 62
     7
370
    25
100
AcDbLine
 10
55.1223817204
 20
10.4291
 30
0.0
 11
55.1377427035
 21
10.7785623656
 31
0.0
  0
LINE
  5
124
330
1F
100
AcDbEntity
  8
0
  6
Continuous
 62
     7
370
    25
100
AcDbLine
 10
57.7107073733
 20
10.4291
 30
0.0
 11
55.1223817204
 21
10.4291
 31
0.0
  0
LINE
  5
125
330
1F
100
AcDbEntity
  8
0
  6
Continuous
 62
     7
370
    25
100
AcDbLine
 10
57.7107073733
 20
10.7824026114
 30
0.0
 11
57.7107073733
 21
10.4291
 31
0.0
  0
LINE
  5
126
330
1F
100
AcDbEntity
  8
0
  6
Continuous
 62
     7
370
    25
100
AcDbLine
 10
55.5640099846
 20
10.7824026114
 30
0.0
 11
57.7107073733
 21
10.7824026114
 31
0.0
  0
LINE
  5
127
330
1F
100
AcDbEntity
  8
0
  6
Continuous
 62
     7
370
    25
100
AcDbLine
 10
-59.759017611
 20
-29.7079597243
 30
0.0
 11
-60.1150666156
 21
-29.7079597243
 31
0.0
  0
LINE
  5
128
330
1F
100
AcDbEntity
  8
0
  6
Continuous
 62
     7
370
    25
100
AcDbLine
 10
-57.9940865237
 20
-29.3097973966
 30
0.0
 11
-58.0897986217
 21
-29.1604865237
 31
0.0
  0
LINE
  5
129
330
1F
100
AcDbEntity
  8
0
  6
Continuous
 62
     7
370
    25
100
AcDbLine
 10
-60.0997526799
 20
-33.5555860643
 30
0.0
 11
-60.0844387443
 21
-33.2071940276
 31
0.0
  0
LINE
  5
12A
330
1F
100
AcDbEntity
  8
0
  6
Continuous
 62
     7
370
    25
100
AcDbLine
 10
-57.5231830015
 20
-33.5555860643
 30
0.0
 11
-60.0997526799
 21
-33.5555860643
 31
0.0
  0
LINE
  5
12B
330
1F
100
AcDbEntity
  8
0
  6
Continuous
 62
     7
370
    25
100
AcDbLine
 10
-57.5231830015
 20
-33.2033655436
 30
0.0
 11
-57.5231830015
 21
-33.5555860643
 31
0.0
  0
LINE
  5
12C
330
1F
100
AcDbEntity
  8
0
  6
Continuous
 62
     7
370
    25
100
AcDbLine
 10
-59.6594770291
 20
-33.2033655436
 30
0.0
 11
-57.5231830015
 21
-33.2033655436
 31
0.0
  0
LINE
  5
12D
330
1F
100
AcDbEntity
  8
0
  6
Continuous
 62
     7
370
    25
100
AcDbLine
 10
-51.8914831547
 20
-28.5862139357
 30
0.0
 11
-50.8424785605
 21
-32.6022935681
 31
0.0
  0
LINE
  5
12E
330
1F
100
AcDbEntity
  8
0
  6
Continuous
 62
     7
370
    25
100
AcDbLine
 10
-52.2551891271
 20
-28.5862139357
 30
0.0
 11
-51.8914831547
 21
-28.5862139357
 31
0.0
  0
LINE
  5
12F
330
1F
100
AcDbEntity
  8
0
  6
Continuous
 62
     7
370
    25
100
AcDbLine
 10
-50.9956179173
 20
-33.5287866769
 30
0.0
 11
-52.2551891271
 21
-28.5862139357
 31
0.0
  0
LINE
  5
130
330
1F
100
AcDbEntity
  8
0
  6
Continuous
 62
     7
370
    25
100
AcDbLine
 10
-50.7046531394
 20
-33.5287866769
 30
0.0
 11
-50.9956179173
 21
-33.5287866769
 31
0.0
  0
LINE
  5
131
330
1F
100
AcDbEntity
  8
0
  6
Continuous
 62
     7
370
    25
100
AcDbLine
 10
-49.5101661562
 20
-28.5862139357
 30
0.0
 11
-50.7046531394
 21
-33.5287866769
 31
0.0
  0
LINE
  5
132
330
1F
100
AcDbEntity
  8
0
  6
Continuous
 62
     7
370
    25
100
AcDbLine
 10
-49.8700436447
 20
-28.5862139357
 30
0.0
 11
-49.5101661562
 21
-28.5862139357
 31
0.0
  0
LINE
  5
133
330
1F
100
AcDbEntity
  8
0
  6
Continuous
 62
     7
370
    25
100
AcDbLine
 10
-50.8424785605
 20
-32.6022935681
 30
0.0
 11
-49.8700436447
 21
-28.5862139357
 31
0.0
  0
LINE
  5
134
330
1F
100
AcDbEntity
  8
0
  6
Continuous
 62
     7
370
    25
100
AcDbLine
 10
81.3147235936
 20
19.7098764064
 30
0.0
 11
80.0955
 21
20.9291
 31
0.0
  0
LINE
  5
135
330
1F
100
AcDbEntity
  8
0
  6
Continuous
 62
     7
370
    25
100
AcDbLine
 10
80.0955
 20
20.9291
 30
0.0
 11
78.8762764064
 21
19.7098764064
 31
0.0
  0
LINE
  5
136
330
1F
100
AcDbEntity
  8
0
  6
Continuous
 62
     7
370
    25
100
AcDbLine
 10
41.3147235936
 20
19.7098764064
 30
0.0
 11
40.0955
 21
20.9291
 31
0.0
  0
LINE
  5
137
330
1F
100
AcDbEntity
  8
0
  6
Continuous
 62
     7
370
    25
100
AcDbLine
 10
40.0955
 20
20.9291
 30
0.0
 11
38.8762764064
 21
19.7098764064
 31
0.0
  0
LINE
  5
138
330
1F
100
AcDbEntity
  8
0
  6
Continuous
 62
     7
370
    25
100
AcDbLine
 10
-38.6852764064
 20
-25.2901235936
 30
0.0
 11
-39.9045
 21
-24.0709
 31
0.0
  0
LINE
  5
139
330
1F
100
AcDbEntity
  8
0
  6
Continuous
 62
     7
370
    25
100
AcDbLine
 10
-39.9045
 20
-24.0709
 30
0.0
 11
-41.1237235936
 21
-25.2901235936
 31
0.0
  0
LINE
  5
13A
330
1F
100
AcDbEntity
  8
0
  6
Continuous
 62
     7
370
    25
100
AcDbLine
 10
-97.9045
 20
32.9291
 30
0.0
 11
-21.9045
 21
32.9291
 31
0.0
  0
LINE
  5
13B
330
1F
100
AcDbEntity
  8
0
  6
Continuous
 62
     7
370
    25
100
AcDbLine
 10
-97.9045
 20
-6.5709
 30
0.0
 11
-97.9045
 21
32.9291
 31
0.0
  0
LINE
  5
13C
330
1F
100
AcDbEntity
  8
0
  6
Continuous
 62
     7
370
    25
100
AcDbLine
 10
-21.9045
 20
-6.5709
 30
0.0
 11
-97.9045
 21
-6.5709
 31
0.0
  0
LINE
  5
13D
330
1F
100
AcDbEntity
  8
0
  6
Continuous
 62
     7
370
    25
100
AcDbLine
 10
-21.9045
 20
32.9291
 30
0.0
 11
-21.9045
 21
-6.5709
 31
0.0
  0
LINE
  5
13E
330
1F
100
AcDbEntity
  8
0
  6
Continuous
 62
     7
370
    25
100
AcDbLine
 10
119.3673
 20
-46.5709
 30
0.0
 11
-119.3673
 21
-46.5709
 31
0.0
  0
LINE
  5
13F
330
1F
100
AcDbEntity
  8
0
  6
Continuous
 62
     7
370
    25
100
AcDbLine
 10
-124.9045
 20
-41.0337
 30
0.0
 11
-124.9045
 21
41.0337
 31
0.0
  0
LINE
  5
140
330
1F
100
AcDbEntity
  8
0
  6
Continuous
 62
     7
370
    25
100
AcDbLine
 10
-119.3673
 20
46.5709
 30
0.0
 11
119.3673
 21
46.5709
 31
0.0
  0
LINE
  5
141
330
1F
100
AcDbEntity
  8
0
  6
Continuous
 62
     7
370
    25
100
AcDbLine
 10
124.9045
 20
41.0337
 30
0.0
 11
124.9045
 21
-41.0337
 31
0.0
  0
LINE
  5
142
330
1F
100
AcDbEntity
  8
0
  6
Continuous
 62
     7
370
    25
100
AcDbLine
 10
-78.6852764064
 20
-25.2901235936
 30
0.0
 11
-79.9045
 21
-24.0709
 31
0.0
  0
LINE
  5
143
330
1F
100
AcDbEntity
  8
0
  6
Continuous
 62
     7
370
    25
100
AcDbLine
 10
-79.9045
 20
-24.0709
 30
0.0
 11
-81.1237235936
 21
-25.2901235936
 31
0.0
  0
LINE
  5
144
330
1F
100
AcDbEntity
  8
0
  6
Continuous
 62
     7
370
    25
100
AcDbLine
 10
41.3147235936
 20
-25.2901235936
 30
0.0
 11
40.0955
 21
-24.0709
 31
0.0
  0
LINE
  5
145
330
1F
100
AcDbEntity
  8
0
  6
Continuous
 62
     7
370
    25
100
AcDbLine
 10
40.0955
 20
-24.0709
 30
0.0
 11
38.8762764064
 21
-25.2901235936
 31
0.0
  0
LINE
  5
146
330
1F
100
AcDbEntity
  8
0
  6
Continuous
 62
     7
370
    25
100
AcDbLine
 10
81.3147235936
 20
-25.2901235936
 30
0.0
 11
80.0955
 21
-24.0709
 31
0.0
  0
LINE
  5
147
330
1F
100
AcDbEntity
  8
0
  6
Continuous
 62
     7
370
    25
100
AcDbLine
 10
80.0955
 20
-24.0709
 30
0.0
 11
78.8762764064
 21
-25.2901235936
 31
0.0
  0
LINE
  5
148
330
1F
100
AcDbEntity
  8
0
  6
Continuous
 62
     7
370
    25
100
AcDbLine
 10
-55.1594770291
 20
-25.6061220521
 30
0.0
 11
-55.7299211332
 21
-23.0946366003
 31
0.0
  0
LINE
  5
149
330
1F
100
AcDbEntity
  8
0
  6
Continuous
 62
     7
370
    25
100
AcDbLine
 10
-55.7299211332
 20
-23.0946366003
 30
0.0
 11
-56.1625398162
 21
-23.0984650842
 31
0.0
  0
LINE
  5
14A
330
1F
100
AcDbEntity
  8
0
  6
Continuous
 62
     7
370
    25
100
AcDbLine
 10
-56.1625398162
 20
-23.0984650842
 30
0.0
 11
-56.7291554364
 21
-25.5869796325
 31
0.0
  0
LINE
  5
14B
330
1F
100
AcDbEntity
  8
0
  6
Continuous
 62
     7
370
    25
100
AcDbLine
 10
-56.7291554364
 20
-25.5869796325
 30
0.0
 11
-57.713075804
 21
-21.5862139357
 31
0.0
  0
LINE
  5
14C
330
1F
100
AcDbEntity
  8
0
  6
Continuous
 62
     7
370
    25
100
AcDbLine
 10
-57.713075804
 20
-21.5862139357
 30
0.0
 11
-58.0729532925
 21
-21.5862139357
 31
0.0
  0
LINE
  5
14D
330
1F
100
AcDbEntity
  8
0
  6
Continuous
 62
     7
370
    25
100
AcDbLine
 10
-58.0729532925
 20
-21.5862139357
 30
0.0
 11
-56.8899517611
 21
-26.5402721286
 31
0.0
  0
LINE
  5
14E
330
1F
100
AcDbEntity
  8
0
  6
Continuous
 62
     7
370
    25
100
AcDbLine
 10
-56.8899517611
 20
-26.5402721286
 30
0.0
 11
-56.5875015314
 21
-26.5441006126
 31
0.0
  0
LINE
  5
14F
330
1F
100
AcDbEntity
  8
0
  6
Continuous
 62
     7
370
    25
100
AcDbLine
 10
-56.5875015314
 20
-26.5441006126
 30
0.0
 11
-55.9404877489
 21
-23.7607928025
 31
0.0
  0
LINE
  5
150
330
1F
100
AcDbEntity
  8
0
  6
Continuous
 62
     7
370
    25
100
AcDbLine
 10
-55.9404877489
 20
-23.7607928025
 30
0.0
 11
-55.2781600306
 21
-26.5402721286
 31
0.0
  0
LINE
  5
151
330
1F
100
AcDbEntity
  8
0
  6
Continuous
 62
     7
370
    25
100
AcDbLine
 10
-55.2781600306
 20
-26.5402721286
 30
0.0
 11
-55.0063376723
 21
-26.5402721286
 31
0.0
  0
LINE
  5
152
330
1F
100
AcDbEntity
  8
0
  6
Continuous
 62
     7
370
    25
100
AcDbLine
 10
-55.0063376723
 20
-26.5402721286
 30
0.0
 11
-53.8386500766
 21
-21.5862139357
 31
0.0
  0
LINE
  5
153
330
1F
100
AcDbEntity
  8
0
  6
Continuous
 62
     7
370
    25
100
AcDbLine
 10
-53.8386500766
 20
-21.5862139357
 30
0.0
 11
-54.1985275651
 21
-21.5862139357
 31
0.0
  0
LINE
  5
154
330
1F
100
AcDbEntity
  8
0
  6
Continuous
 62
     7
370
    25
100
AcDbLine
 10
-54.1985275651
 20
-21.5862139357
 30
0.0
 11
-55.1594770291
 21
-25.6061220521
 31
0.0
  0
LINE
  5
155
330
1F
100
AcDbEntity
  8
0
  6
Continuous
 62
     7
370
    25
100
AcDbLine
 10
-67.9045
 20
-23.0180669219
 30
0.0
 11
-66.8095535988
 21
-21.5709
 31
0.0
  0
LINE
  5
156
330
1F
100
AcDbEntity
  8
0
  6
Continuous
 62
     7
370
    25
100
AcDbLine
 10
-67.4642243492
 20
-23.0180669219
 30
0.0
 11
-67.9045
 21
-23.0180669219
 31
0.0
  0
LINE
  5
157
330
1F
100
AcDbEntity
  8
0
  6
Continuous
 62
     7
370
    25
100
AcDbLine
 10
-66.8363529862
 20
-22.2140852986
 30
0.0
 11
-67.4642243492
 21
-23.0180669219
 31
0.0
  0
LINE
  5
158
330
1F
100
AcDbEntity
  8
0
  6
Continuous
 62
     7
370
    25
100
AcDbLine
 10
-66.8363529862
 20
-26.5402721286
 30
0.0
 11
-66.8363529862
 21
-22.2140852986
 31
0.0
  0
LINE
  5
159
330
1F
100
AcDbEntity
  8
0
  6
Continuous
 62
     7
370
    25
100
AcDbLine
 10
-66.4879609495
 20
-26.5402721286
 30
0.0
 11
-66.8363529862
 21
-26.5402721286
 31
0.0
  0
LINE
  5
15A
330
1F
100
AcDbEntity
  8
0
  6
Continuous
 62
     7
370
    25
100
AcDbLine
 10
-66.4879609495
 20
-21.5709
 30
0.0
 11
-66.4879609495
 21
-26.5402721286
 31
0.0
  0
LINE
  5
15B
330
1F
100
AcDbEntity
  8
0
  6
Continuous
 62
     7
370
    25
100
AcDbLine
 10
-66.8095535988
 20
-21.5709
 30
0.0
 11
-66.4879609495
 21
-21.5709
 31
0.0
  0
LINE
  5
15C
330
1F
100
AcDbEntity
  8
0
  6
Continuous
 62
     7
370
    25
100
AcDbLine
 10
-55.1839793262
 20
-30.9483885145
 30
0.0
 11
-55.1839793262
 21
-32.0165355283
 31
0.0
  0
LINE
  5
15D
330
1F
100
AcDbEntity
  8
0
  6
Continuous
 62
     7
370
    25
100
AcDbLine
 10
-55.5515137825
 20
-30.9483885145
 30
0.0
 11
-55.1839793262
 21
-30.9483885145
 31
0.0
  0
LINE
  5
15E
330
1F
100
AcDbEntity
  8
0
  6
Continuous
 62
     7
370
    25
100
AcDbLine
 10
-55.5515137825
 20
-32.0165355283
 30
0.0
 11
-55.5515137825
 21
-30.9483885145
 31
0.0
  0
LINE
  5
15F
330
1F
100
AcDbEntity
  8
0
  6
Continuous
 62
     7
370
    25
100
AcDbLine
 10
-56.6541171516
 20
-32.0165355283
 30
0.0
 11
-55.5515137825
 21
-32.0165355283
 31
0.0
  0
LINE
  5
160
330
1F
100
AcDbEntity
  8
0
  6
Continuous
 62
     7
370
    25
100
AcDbLine
 10
-55.6127695253
 20
-28.5747284839
 30
0.0
 11
-56.6541171516
 21
-32.0165355283
 31
0.0
  0
LINE
  5
161
330
1F
100
AcDbEntity
  8
0
  6
Continuous
 62
     7
370
    25
100
AcDbLine
 10
-55.9803039816
 20
-28.5709
 30
0.0
 11
-55.6127695253
 21
-28.5747284839
 31
0.0
  0
LINE
  5
162
330
1F
100
AcDbEntity
  8
0
  6
Continuous
 62
     7
370
    25
100
AcDbLine
 10
-57.021651608
 20
-32.0663058193
 30
0.0
 11
-55.9803039816
 21
-28.5709
 31
0.0
  0
LINE
  5
163
330
1F
100
AcDbEntity
  8
0
  6
Continuous
 62
     7
370
    25
100
AcDbLine
 10
-57.021651608
 20
-32.3955554364
 30
0.0
 11
-57.021651608
 21
-32.0663058193
 31
0.0
  0
LINE
  5
164
330
1F
100
AcDbEntity
  8
0
  6
Continuous
 62
     7
370
    25
100
AcDbLine
 10
-55.5515137825
 20
-32.3955554364
 30
0.0
 11
-57.021651608
 21
-32.3955554364
 31
0.0
  0
LINE
  5
165
330
1F
100
AcDbEntity
  8
0
  6
Continuous
 62
     7
370
    25
100
AcDbLine
 10
-55.5515137825
 20
-33.5287866769
 30
0.0
 11
-55.5515137825
 21
-32.3955554364
 31
0.0
  0
LINE
  5
166
330
1F
100
AcDbEntity
  8
0
  6
Continuous
 62
     7
370
    25
100
AcDbLine
 10
-55.1839793262
 20
-33.5287866769
 30
0.0
 11
-55.5515137825
 21
-33.5287866769
 31
0.0
  0
LINE
  5
167
330
1F
100
AcDbEntity
  8
0
  6
Continuous
 62
     7
370
    25
100
AcDbLine
 10
-55.1839793262
 20
-32.3955554364
 30
0.0
 11
-55.1839793262
 21
-33.5287866769
 31
0.0
  0
LINE
  5
168
330
1F
100
AcDbEntity
  8
0
  6
Continuous
 62
     7
370
    25
100
AcDbLine
 10
-54.4297679939
 20
-32.3955554364
 30
0.0
 11
-55.1839793262
 21
-32.3955554364
 31
0.0
  0
LINE
  5
169
330
1F
100
AcDbEntity
  8
0
  6
Continuous
 62
     7
370
    25
100
AcDbLine
 10
-54.4297679939
 20
-32.0165355283
 30
0.0
 11
-54.4297679939
 21
-32.3955554364
 31
0.0
  0
LINE
  5
16A
330
1F
100
AcDbEntity
  8
0
  6
Continuous
 62
     7
370
    25
100
AcDbLine
 10
-55.1839793262
 20
-32.0165355283
 30
0.0
 11
-54.4297679939
 21
-32.0165355283
 31
0.0
  0
LINE
  5
16B
330
1F
100
AcDbEntity
  8
0
  6
Continuous
 62
     7
370
    25
100
AcDbLine
 10
-64.9236424196
 20
-32.0012215926
 30
0.0
 11
-64.9236424196
 21
-31.6643150077
 31
0.0
  0
LINE
  5
16C
330
1F
100
AcDbEntity
  8
0
  6
Continuous
 62
     7
370
    25
100
AcDbLine
 10
-62.6801508423
 20
-32.0012215926
 30
0.0
 11
-64.9236424196
 21
-32.0012215926
 31
0.0
  0
LINE
  5
16D
330
1F
100
AcDbEntity
  8
0
  6
Continuous
 62
     7
370
    25
100
AcDbLine
 10
-62.6801508423
 20
-31.6643150077
 30
0.0
 11
-62.6801508423
 21
-32.0012215926
 31
0.0
  0
LINE
  5
16E
330
1F
100
AcDbEntity
  8
0
  6
Continuous
 62
     7
370
    25
100
AcDbLine
 10
-64.9236424196
 20
-31.6643150077
 30
0.0
 11
-62.6801508423
 21
-31.6643150077
 31
0.0
  0
LINE
  5
16F
330
1F
100
AcDbEntity
  8
0
  6
Continuous
 62
     7
370
    25
100
AcDbLine
 10
55.5021615027
 20
-28.923339969
 30
0.0
 11
57.2372505809
 21
-28.923339969
 31
0.0
  0
LINE
  5
170
330
1F
100
AcDbEntity
  8
0
  6
Continuous
 62
     7
370
    25
100
AcDbLine
 10
57.2372505809
 20
-28.923339969
 30
0.0
 11
57.2372505809
 21
-28.5709
 31
0.0
  0
LINE
  5
171
330
1F
100
AcDbEntity
  8
0
  6
Continuous
 62
     7
370
    25
100
AcDbLine
 10
57.2372505809
 20
-28.5709
 30
0.0
 11
55.1497215337
 21
-28.5709
 31
0.0
  0
LINE
  5
172
330
1F
100
AcDbEntity
  8
0
  6
Continuous
 62
     7
370
    25
100
AcDbLine
 10
55.1497215337
 20
-28.5709
 30
0.0
 11
55.1497215337
 21
-31.0031230829
 31
0.0
  0
LINE
  5
173
330
1F
100
AcDbEntity
  8
0
  6
Continuous
 62
     7
370
    25
100
AcDbLine
 10
55.0955
 20
-33.2145870643
 30
0.0
 11
55.0955
 21
-33.5709
 31
0.0
  0
LINE
  5
174
330
1F
100
AcDbEntity
  8
0
  6
Continuous
 62
     7
370
    25
100
AcDbLine
 10
55.5021615027
 20
-30.6468101472
 30
0.0
 11
55.5021615027
 21
-28.923339969
 31
0.0
  0
LINE
  5
175
330
1F
100
AcDbEntity
  8
0
  6
Continuous
 62
     7
370
    25
100
AcDbLine
 10
60.0532572965
 20
10.4559817204
 30
0.0
 11
61.2629347158
 21
15.4137390169
 31
0.0
  0
LINE
  5
176
330
1F
100
AcDbEntity
  8
0
  6
Continuous
 62
     7
370
    25
100
AcDbLine
 10
60.4027196621
 20
10.4559817204
 30
0.0
 11
60.0532572965
 21
10.4559817204
 31
0.0
  0
LINE
  5
177
330
1F
100
AcDbEntity
  8
0
  6
Continuous
 62
     7
370
    25
100
AcDbLine
 10
60.763702765
 20
11.9459970814
 30
0.0
 11
60.4027196621
 21
10.4559817204
 31
0.0
  0
LINE
  5
178
330
1F
100
AcDbEntity
  8
0
  6
Continuous
 62
     7
370
    25
100
AcDbLine
 10
61.9733801843
 20
11.9459970814
 30
0.0
 11
60.763702765
 21
11.9459970814
 31
0.0
  0
LINE
  5
179
330
1F
100
AcDbEntity
  8
0
  6
Continuous
 62
     7
370
    25
100
AcDbLine
 10
62.3305230415
 20
10.4559817204
 30
0.0
 11
61.9733801843
 21
11.9459970814
 31
0.0
  0
LINE
  5
17A
330
1F
100
AcDbEntity
  8
0
  6
Continuous
 62
     7
370
    25
100
AcDbLine
 10
62.6799854071
 20
10.4559817204
 30
0.0
 11
62.3305230415
 21
10.4559817204
 31
0.0
  0
LINE
  5
17B
330
1F
100
AcDbEntity
  8
0
  6
Continuous
 62
     7
370
    25
100
AcDbLine
 10
61.5317519201
 20
15.4137390169
 30
0.0
 11
62.6799854071
 21
10.4559817204
 31
0.0
  0
LINE
  5
17C
330
1F
100
AcDbEntity
  8
0
  6
Continuous
 62
     7
370
    25
100
AcDbLine
 10
61.2629347158
 20
15.4137390169
 30
0.0
 11
61.5317519201
 21
15.4137390169
 31
0.0
  0
LINE
  5
17D
330
1F
100
AcDbEntity
  8
0
  6
Continuous
 62
     7
370
    25
100
AcDbLine
 10
62.476452381
 20
21.9843995392
 30
0.0
 11
63.5286797235
 21
17.9559817204
 31
0.0
  0
LINE
  5
17E
330
1F
100
AcDbEntity
  8
0
  6
Continuous
 62
     7
370
    25
100
AcDbLine
 10
62.1116290323
 20
21.9843995392
 30
0.0
 11
62.476452381
 21
21.9843995392
 31
0.0
  0
LINE
  5
17F
330
1F
100
AcDbEntity
  8
0
  6
Continuous
 62
     7
370
    25
100
AcDbLine
 10
63.3750698925
 20
17.0266422427
 30
0.0
 11
62.1116290323
 21
21.9843995392
 31
0.0
  0
LINE
  5
180
330
1F
100
AcDbEntity
  8
0
  6
Continuous
 62
     7
370
    25
100
AcDbLine
 10
63.6669285714
 20
17.0266422427
 30
0.0
 11
63.3750698925
 21
17.0266422427
 31
0.0
  0
LINE
  5
181
330
1F
100
AcDbEntity
  8
0
  6
Continuous
 62
     7
370
    25
100
AcDbLine
 10
64.8650852535
 20
21.9843995392
 30
0.0
 11
63.6669285714
 21
17.0266422427
 31
0.0
  0
LINE
  5
182
330
1F
100
AcDbEntity
  8
0
  6
Continuous
 62
     7
370
    25
100
AcDbLine
 10
64.5041021505
 20
21.9843995392
 30
0.0
 11
64.8650852535
 21
21.9843995392
 31
0.0
  0
LINE
  5
183
330
1F
100
AcDbEntity
  8
0
  6
Continuous
 62
     7
370
    25
100
AcDbLine
 10
63.5286797235
 20
17.9559817204
 30
0.0
 11
64.5041021505
 21
21.9843995392
 31
0.0
  0
LINE
  5
184
330
1F
100
AcDbEntity
  8
0
  6
Continuous
 62
     7
370
    25
100
AcDbLine
 10
55.0955
 20
20.548147619
 30
0.0
 11
56.1938102919
 21
21.9997605223
 31
0.0
  0
LINE
  5
185
330
1F
100
AcDbEntity
  8
0
  6
Continuous
 62
     7
370
    25
100
AcDbLine
 10
55.5371282642
 20
20.548147619
 30
0.0
 11
55.0955
 21
20.548147619
 31
0.0
  0
LINE
  5
186
330
1F
100
AcDbEntity
  8
0
  6
Continuous
 62
     7
370
    25
100
AcDbLine
 10
56.1669285714
 20
21.354599232
 30
0.0
 11
55.5371282642
 21
20.548147619
 31
0.0
  0
LINE
  5
187
330
1F
100
AcDbEntity
  8
0
  6
Continuous
 62
     7
370
    25
100
AcDbLine
 10
56.1669285714
 20
17.0151215054
 30
0.0
 11
56.1669285714
 21
21.354599232
 31
0.0
  0
LINE
  5
188
330
1F
100
AcDbEntity
  8
0
  6
Continuous
 62
     7
370
    25
100
AcDbLine
 10
56.516390937
 20
17.0151215054
 30
0.0
 11
56.1669285714
 21
17.0151215054
 31
0.0
  0
LINE
  5
189
330
1F
100
AcDbEntity
  8
0
  6
Continuous
 62
     7
370
    25
100
AcDbLine
 10
56.516390937
 20
21.9997605223
 30
0.0
 11
56.516390937
 21
17.0151215054
 31
0.0
  0
LINE
  5
18A
330
1F
100
AcDbEntity
  8
0
  6
Continuous
 62
     7
370
    25
100
AcDbLine
 10
56.1938102919
 20
21.9997605223
 30
0.0
 11
56.516390937
 21
21.9997605223
 31
0.0
  0
LINE
  5
18B
330
1F
100
AcDbEntity
  8
0
  6
Continuous
 62
     7
370
    25
100
AcDbLine
 10
60.0645162665
 20
-21.971364756
 30
0.0
 11
61.1295821069
 21
-26.0341068164
 31
0.0
  0
LINE
  5
18C
330
1F
100
AcDbEntity
  8
0
  6
Continuous
 62
     7
370
    25
100
AcDbLine
 10
59.6965844307
 20
-21.971364756
 30
0.0
 11
60.0645162665
 21
-21.971364756
 31
0.0
  0
LINE
  5
18D
330
1F
100
AcDbEntity
  8
0
  6
Continuous
 62
     7
370
    25
100
AcDbLine
 10
60.9707904725
 20
-26.971364756
 30
0.0
 11
59.6965844307
 21
-21.971364756
 31
0.0
  0
LINE
  5
18E
330
1F
100
AcDbEntity
  8
0
  6
Continuous
 62
     7
370
    25
100
AcDbLine
 10
61.2651359411
 20
-26.971364756
 30
0.0
 11
60.9707904725
 21
-26.971364756
 31
0.0
  0
LINE
  5
18F
330
1F
100
AcDbEntity
  8
0
  6
Continuous
 62
     7
370
    25
100
AcDbLine
 10
62.4773745159
 20
-21.971364756
 30
0.0
 11
61.2651359411
 21
-26.971364756
 31
0.0
  0
LINE
  5
190
330
1F
100
AcDbEntity
  8
0
  6
Continuous
 62
     7
370
    25
100
AcDbLine
 10
62.1133156468
 20
-21.971364756
 30
0.0
 11
62.4773745159
 21
-21.971364756
 31
0.0
  0
LINE
  5
191
330
1F
100
AcDbEntity
  8
0
  6
Continuous
 62
     7
370
    25
100
AcDbLine
 10
61.1295821069
 20
-26.0341068164
 30
0.0
 11
62.1133156468
 21
-21.971364756
 31
0.0
  0
LINE
  5
192
330
1F
100
AcDbEntity
  8
0
  6
Continuous
 62
     7
370
    25
100
AcDbLine
 10
60.5563830364
 20
-31.7118759876
 30
0.0
 11
61.5633543765
 21
-31.7118759876
 31
0.0
  0
LINE
  5
193
330
1F
100
AcDbEntity
  8
0
  6
Continuous
 62
     7
370
    25
100
AcDbLine
 10
61.5633543765
 20
-31.7118759876
 30
0.0
 11
61.0559957397
 21
-29.5004120062
 31
0.0
  0
LINE
  5
194
330
1F
100
AcDbEntity
  8
0
  6
Continuous
 62
     7
370
    25
100
AcDbLine
 10
61.0559957397
 20
-29.5004120062
 30
0.0
 11
60.5563830364
 21
-31.7118759876
 31
0.0
  0
LINE
  5
195
330
1F
100
AcDbEntity
  8
0
  6
Continuous
 62
     7
370
    25
100
AcDbLine
 10
60.8942711214
 20
12.2992996928
 30
0.0
 11
61.892735023
 21
12.2992996928
 31
0.0
  0
LINE
  5
196
330
1F
100
AcDbEntity
  8
0
  6
Continuous
 62
     7
370
    25
100
AcDbLine
 10
61.3858225806
 20
14.4920800307
 30
0.0
 11
60.8942711214
 21
12.2992996928
 31
0.0
  0
LINE
  5
197
330
1F
100
AcDbEntity
  8
0
  6
Continuous
 62
     7
370
    25
100
AcDbLine
 10
61.892735023
 20
12.2992996928
 30
0.0
 11
61.3858225806
 21
14.4920800307
 31
0.0
  0
ARC
  5
198
330
1F
100
AcDbEntity
  8
0
  6
Continuous
 62
     7
370
    25
100
AcDbCircle
 10
80.0955
 20
16.4291
 30
0.0
 40
3.500000000000046
100
AcDbArc
 50
110.386402347
 51
69.613597653
  0
ARC
  5
199
330
1F
100
AcDbEntity
  8
0
  6
Continuous
 62
     7
370
    25
100
AcDbCircle
 10
40.0955
 20
16.4291
 30
0.0
 40
3.500000000000041
100
AcDbArc
 50
110.386402347
 51
69.613597653
  0
ARC
  5
19A
330
1F
100
AcDbEntity
  8
0
  6
Continuous
 62
     7
370
    25
100
AcDbCircle
 10
-39.9045
 20
-28.5709
 30
0.0
 40
3.499999999999992
100
AcDbArc
 50
110.386402347
 51
69.613597653
  0
ARC
  5
19B
330
1F
100
AcDbEntity
  8
0
  6
Continuous
 62
     7
370
    25
100
AcDbCircle
 10
119.3673
 20
-41.0337
 30
0.0
 40
5.537200000000006
100
AcDbArc
 50
270.0
 51
0.0
  0
ARC
  5
19C
330
1F
100
AcDbEntity
  8
0
  6
Continuous
 62
     7
370
    25
100
AcDbCircle
 10
-119.3673
 20
-41.0337
 30
0.0
 40
5.53720000000002
100
AcDbArc
 50
180.0
 51
270.0
  0
ARC
  5
19D
330
1F
100
AcDbEntity
  8
0
  6
Continuous
 62
     7
370
    25
100
AcDbCircle
 10
-119.3673
 20
41.0337
 30
0.0
 40
5.537200000000006
100
AcDbArc
 50
90.0
 51
180.0
  0
ARC
  5
19E
330
1F
100
AcDbEntity
  8
0
  6
Continuous
 62
     7
370
    25
100
AcDbCircle
 10
119.3673
 20
41.0337
 30
0.0
 40
5.53720000000002
100
AcDbArc
 50
0.0
 51
90.0
  0
ARC
  5
19F
330
1F
100
AcDbEntity
  8
0
  6
Continuous
 62
     7
370
    25
100
AcDbCircle
 10
-79.9045
 20
-28.5709
 30
0.0
 40
3.499999999999991
100
AcDbArc
 50
110.386402347
 51
69.613597653
  0
ARC
  5
1A0
330
1F
100
AcDbEntity
  8
0
  6
Continuous
 62
     7
370
    25
100
AcDbCircle
 10
40.0955
 20
-28.5709
 30
0.0
 40
3.500000000000004
100
AcDbArc
 50
110.386402347
 51
69.613597653
  0
ARC
  5
1A1
330
1F
100
AcDbEntity
  8
0
  6
Continuous
 62
     7
370
    25
100
AcDbCircle
 10
80.0955
 20
-28.5709
 30
0.0
 40
3.500000000000039
100
AcDbArc
 50
110.386402347
 51
69.613597653
  0
ENDSEC
  0
SECTION
  2
OBJECTS
  0
DICTIONARY
  5
C
330
0
100
AcDbDictionary
281
     1
  3
ACAD_GROUP
350
D
  3
ACAD_LAYOUT
350
1A
  3
ACAD_MLINESTYLE
350
17
  3
ACAD_PLOTSETTINGS
350
19
  3
ACAD_PLOTSTYLENAME
350
E
  3
ACAD_SCALELIST
350
47
  3
DWGPROPS
350
1A2
  0
DICTIONARY
  5
D
102
{ACAD_REACTORS
330
C
102
}
330
C
100
AcDbDictionary
281
     1
  0
DICTIONARY
  5
1A
102
{ACAD_REACTORS
330
C
102
}
330
C
100
AcDbDictionary
281
     1
  3
Layout1
350
1E
  3
Layout2
350
26
  3
Model
350
22
  0
DICTIONARY
  5
17
102
{ACAD_REACTORS
330
C
102
}
330
C
100
AcDbDictionary
281
     1
  3
Standard
350
18
  0
DICTIONARY
  5
19
102
{ACAD_REACTORS
330
C
102
}
330
C
100
AcDbDictionary
281
     1
  0
ACDBDICTIONARYWDFLT
  5
E
102
{ACAD_REACTORS
330
C
102
}
330
C
100
AcDbDictionary
281
     1
  3
Normal
350
F
100
AcDbDictionaryWithDefault
340
F
  0
DICTIONARY
  5
47
102
{ACAD_REACTORS
330
C
102
}
330
C
100
AcDbDictionary
281
     1
  3
A0
350
48
  3
A1
350
49
  3
A2
350
4A
  3
A3
350
4B
  3
A4
350
4C
  3
A5
350
4D
  3
A6
350
4E
  3
A7
350
4F
  3
A8
350
50
  3
A9
350
51
  3
B0
350
52
  3
B1
350
53
  3
B2
350
54
  3
B3
350
55
  3
B4
350
56
  3
B5
350
57
  3
B6
350
58
  0
XRECORD
  5
1A2
102
{ACAD_REACTORS
330
C
102
}
330
C
100
AcDbXrecord
280
     1
  1
DWGPROPS COOKIE
  2

  3

  4

  6

  7

  8
Zappvion
  9

300
=
301
=
302
=
303
=
304
=
305
=
306
=
307
=
308
=
309
=
 40
0.0
 41
2460840.60863147
 42
2460840.608680602
  1

 90
        0
  0
LAYOUT
  5
1E
102
{ACAD_REACTORS
330
1A
102
}
330
1A
100
AcDbPlotSettings
  1

  2
none_device
  4

  6

 40
0.0
 41
0.0
 42
0.0
 43
0.0
 44
0.0
 45
0.0
 46
0.0
 47
0.0
 48
0.0
 49
0.0
140
0.0
141
0.0
142
1.0
143
1.0
 70
   688
 72
     1
 73
     0
 74
     5
  7

 75
    16
147
1.0
148
0.0
149
0.0
100
AcDbLayout
  1
Layout1
 70
     1
 71
     1
 10
0.0
 20
0.0
 11
420.0
 21
297.0
 12
0.0
 22
0.0
 32
0.0
 14
1.0000000000E+20
 24
1.0000000000E+20
 34
1.0000000000E+20
 15
-1.0000000000E+20
 25
-1.0000000000E+20
 35
-1.0000000000E+20
146
0.0
 13
0.0
 23
0.0
 33
0.0
 16
1.0
 26
0.0
 36
0.0
 17
0.0
 27
1.0
 37
0.0
 76
     0
330
1B
  0
LAYOUT
  5
26
102
{ACAD_REACTORS
330
1A
102
}
330
1A
100
AcDbPlotSettings
  1

  2
none_device
  4

  6

 40
0.0
 41
0.0
 42
0.0
 43
0.0
 44
0.0
 45
0.0
 46
0.0
 47
0.0
 48
0.0
 49
0.0
140
0.0
141
0.0
142
1.0
143
1.0
 70
   688
 72
     1
 73
     0
 74
     5
  7

 75
    16
147
1.0
148
0.0
149
0.0
100
AcDbLayout
  1
Layout2
 70
     1
 71
     2
 10
0.0
 20
0.0
 11
0.0
 21
0.0
 12
0.0
 22
0.0
 32
0.0
 14
0.0
 24
0.0
 34
0.0
 15
0.0
 25
0.0
 35
0.0
146
0.0
 13
0.0
 23
0.0
 33
0.0
 16
1.0
 26
0.0
 36
0.0
 17
0.0
 27
1.0
 37
0.0
 76
     0
330
23
  0
LAYOUT
  5
22
102
{ACAD_REACTORS
330
1A
102
}
330
1A
100
AcDbPlotSettings
  1

  2
none_device
  4
ANSI_A_(11.00_x_8.50_Inches)
  6

 40
6.35
 41
19.05
 42
6.35000508
 43
19.05000254
 44
279.4
 45
215.9
 46
133.34999746
 47
88.89999873
 48
0.0
 49
0.0
140
0.0
141
0.0
142
0.0435933053
143
1.0
 70
  1696
 72
     0
 73
     0
 74
     0
  7

 75
     0
147
0.0179189148
148
-1300.4909072572
149
0.0
100
AcDbLayout
  1
Model
 70
     1
 71
     0
 10
0.0
 20
0.0
 11
420.0
 21
297.0
 12
0.0
 22
0.0
 32
0.0
 14
-124.9045
 24
-46.5709
 34
0.0
 15
124.9045
 25
46.5709
 35
0.0
146
0.0
 13
0.0
 23
0.0
 33
0.0
 16
1.0
 26
0.0
 36
0.0
 17
0.0
 27
1.0
 37
0.0
 76
     0
330
1F
331
29
  0
MLINESTYLE
  5
18
102
{ACAD_REACTORS
330
17
102
}
330
17
100
AcDbMlineStyle
  2
Standard
 70
     0
  3

 62
   256
 51
90.0
 52
90.0
 71
     2
 49
0.5
 62
   256
  6
BYLAYER
 49
-0.5
 62
   256
  6
BYLAYER
  0
ACDBPLACEHOLDER
  5
F
102
{ACAD_REACTORS
330
E
102
}
330
E
  0
SCALE
  5
48
102
{ACAD_REACTORS
330
47
102
}
330
47
100
AcDbScale
 70
     0
300
1:1
140
1.0
141
1.0
290
     1
  0
SCALE
  5
49
102
{ACAD_REACTORS
330
47
102
}
330
47
100
AcDbScale
 70
     0
300
1:2
140
1.0
141
2.0
290
     0
  0
SCALE
  5
4A
102
{ACAD_REACTORS
330
47
102
}
330
47
100
AcDbScale
 70
     0
300
1:4
140
1.0
141
4.0
290
     0
  0
SCALE
  5
4B
102
{ACAD_REACTORS
330
47
102
}
330
47
100
AcDbScale
 70
     0
300
1:5
140
1.0
141
5.0
290
     0
  0
SCALE
  5
4C
102
{ACAD_REACTORS
330
47
102
}
330
47
100
AcDbScale
 70
     0
300
1:8
140
1.0
141
8.0
290
     0
  0
SCALE
  5
4D
102
{ACAD_REACTORS
330
47
102
}
330
47
100
AcDbScale
 70
     0
300
1:10
140
1.0
141
10.0
290
     0
  0
SCALE
  5
4E
102
{ACAD_REACTORS
330
47
102
}
330
47
100
AcDbScale
 70
     0
300
1:16
140
1.0
141
16.0
290
     0
  0
SCALE
  5
4F
102
{ACAD_REACTORS
330
47
102
}
330
47
100
AcDbScale
 70
     0
300
1:20
140
1.0
141
20.0
290
     0
  0
SCALE
  5
50
102
{ACAD_REACTORS
330
47
102
}
330
47
100
AcDbScale
 70
     0
300
1:30
140
1.0
141
30.0
290
     0
  0
SCALE
  5
51
102
{ACAD_REACTORS
330
47
102
}
330
47
100
AcDbScale
 70
     0
300
1:40
140
1.0
141
40.0
290
     0
  0
SCALE
  5
52
102
{ACAD_REACTORS
330
47
102
}
330
47
100
AcDbScale
 70
     0
300
1:50
140
1.0
141
50.0
290
     0
  0
SCALE
  5
53
102
{ACAD_REACTORS
330
47
102
}
330
47
100
AcDbScale
 70
     0
300
1:100
140
1.0
141
100.0
290
     0
  0
SCALE
  5
54
102
{ACAD_REACTORS
330
47
102
}
330
47
100
AcDbScale
 70
     0
300
2:1
140
2.0
141
1.0
290
     0
  0
SCALE
  5
55
102
{ACAD_REACTORS
330
47
102
}
330
47
100
AcDbScale
 70
     0
300
4:1
140
4.0
141
1.0
290
     0
  0
SCALE
  5
56
102
{ACAD_REACTORS
330
47
102
}
330
47
100
AcDbScale
 70
     0
300
8:1
140
8.0
141
1.0
290
     0
  0
SCALE
  5
57
102
{ACAD_REACTORS
330
47
102
}
330
47
100
AcDbScale
 70
     0
300
10:1
140
10.0
141
1.0
290
     0
  0
SCALE
  5
58
102
{ACAD_REACTORS
330
47
102
}
330
47
100
AcDbScale
 70
     0
300
100:1
140
100.0
141
1.0
290
     0
  0
ENDSEC
  0
EOF
